<?xml version="1.0" encoding="utf-8"?>
<!-- Generator: Adobe Illustrator 26.0.0, SVG Export Plug-In . SVG Version: 6.00 Build 0)  -->
<svg version="1.1" id="Layer_1" xmlns="http://www.w3.org/2000/svg" xmlns:xlink="http://www.w3.org/1999/xlink" x="0px" y="0px"
	 viewBox="0 0 480 257.3" style="enable-background:new 0 0 480 257.3;" xml:space="preserve">
<style type="text/css">
	.st0{fill:#FEFEFE;}
	.st1{fill:#1B8DB1;}
	.st2{fill:#F8C63A;}
	.st3{fill:#EC6E2C;}
	.st4{fill:#CA2A23;}
	.st5{fill:#FDD53C;}
	.st6{fill:#E9682B;}
	.st7{fill:#ECA034;}
	.st8{fill:#D55750;}
	.st9{fill:#ECA134;}
	.st10{fill:#FBC83C;}
	.st11{fill:#E25E2B;}
	.st12{fill:#EC9235;}
	.st13{fill:#C72422;}
	.st14{fill:#E45E2A;}
	.st15{fill:#E15729;}
	.st16{fill:#ECF5F8;}
	.st17{fill:#ACD5E2;}
	.st18{fill:#96CBDB;}
	.st19{fill:#BEDEE8;}
</style>
<g id="Folder1_xA0_Image_00000052824279169491230140000010162731154775610278_">
	<g>
		<g>
			<path class="st0" d="M0,121C0,89.3,0,57.6,0,26"/>
			<path class="st0" d="M1.1,217.2"/>
			<path class="st0" d="M134.4,216.1"/>
			<path class="st1" d="M38.2,94c-1.9,0.8-3.5,1.6-5.2,2.3c-2.7,1.2-5.4,2.4-8.1,3.6c-1.6,0.7-3.3,1.4-4.9,2.2
				c-0.7,0.4-0.9-0.2-1-0.6c-0.6-1.5-1.2-3-1.7-4.5c-0.9-2.4-2-4.8-2.7-7.3c-1.3-4.7-1.8-9.6-1.7-14.5c0.1-4.6,0.8-9.2,2.1-13.6
				c0.6-2.2,1.5-4.3,2.3-6.4c1.9-4.5,4.4-8.7,7.5-12.6c3.5-4.4,7.5-8.2,12.2-11.3c3.5-2.4,7.2-4.5,11.2-5.9c0.5-0.2,0.7-0.3,0.9,0.3
				c1.8,4.8,3.6,9.5,5.4,14.3c0.5,1.3,1,2.5,1.4,3.8c0.5,0.1,0.5-0.3,0.6-0.5c3.9-5.3,11-6.7,16.5-3.3c4.9,3.1,6.2,9.9,2.8,14.6
				c-2.5,3.5-7.3,6.4-13.8,4.8c-0.2,0.4,0.1,0.7,0.2,1.1c2.3,6.2,4.7,12.3,7,18.5c0.3,0.7,0.3,1.1-0.5,1.5
				c-5.6,2.4-11.2,4.9-16.8,7.4c-0.1,0-0.2,0-0.3,0c1-2.2,1-4.6,0.4-6.8c-1.1-4.5-5.2-8.4-10-8.9c-6.4-0.6-11.6,4.2-11.7,10.2
				C30.3,87.8,33.7,92.2,38.2,94z"/>
			<path class="st2" d="M82,113c-0.2-2.7,0.2-5.4,0.1-8.1c-0.1-4.1,0-8.2,0-12.2c0-0.3-0.1-0.6,0.2-1c2.2,1.3,4.5,2.1,7.2,2
				c4.7-0.2,9.3-4,9.8-9c0.6-6.4-5-10.8-10.1-10.8c-2.2,0-4.3,0.4-6.2,1.6c-0.9,0.6-1.1,0.3-1-0.6c0.1-5.7,0.2-11.4,0.2-17.1
				c0-0.3,0-0.6,0-1c-0.2-2.2-0.2-2.2,1.9-2.1c11.7,0.5,22,4.4,31,11.9c9.3,7.7,15.2,17.5,17.7,29.3c1.1,4.9,1.4,10,0.9,15
				c-0.1,0.1-0.1,0.2-0.1,0.3c-0.2,1.6-0.2,1.7-1.9,1.7c-4.6,0-9.1,0-13.7,0c-0.5,0-1,0-1.5,0c-0.1,0-0.2,0.1-0.3,0.1
				c-0.1,0.1-0.2,0.1-0.3,0.2c-0.2,0.2-0.2,0.4-0.1,0.7c0.2,0.3,0.4,0.5,0.6,0.8c0.9,1.2,1.5,2.5,1.9,4c0,0.4,0,0.9,0,1.3
				c0.2,1.5-0.3,3-0.3,4.4c-0.5,2.8-2.1,4.9-4.5,6.3c-6.7,4-14.3-0.3-15.5-7.5c-0.6-3.5,0.3-6.6,2.6-9.3c0.2-0.3,0.6-0.5,0.2-0.9
				c-0.1-0.1-0.2-0.1-0.3-0.1c-4,0-8-0.1-11.9,0.1c-0.2,0.1-0.4,0.2-0.6,0.3c-0.1,0.1-0.3,0.1-0.4,0.1c-1.4,0.1-2.8,0.1-4.2,0
				C82.8,113.4,82.3,113.4,82,113z"/>
			<path class="st3" d="M82,113c1.9,0,3.8,0,5.7,0.1c4.1-0.2,8.1-0.1,12.2-0.1c0.5,0,1.2-0.1,1,0.8c-0.9,1.3-1.8,2.6-2.3,4.1
				c-2,6,1.4,12.5,7.7,13.8c4,0.9,8.3-0.9,10.6-5.2c0.3-0.7,0.8-1.3,0.8-2.1c0.2-1.3,0.5-2.7,0.4-4.1c0-0.1,0-0.2,0-0.3
				c0.1-0.4,0.2-0.8,0.1-1.2c-0.1-0.1-0.1-0.3-0.2-0.4c-0.4-1.4-1-2.7-1.9-3.8c0.1-0.4-0.2-0.6-0.5-0.7c-0.3-0.3-0.4-0.6,0-0.9
				c1.5-0.2,3.1-0.1,4.6-0.1c3.9,0,7.9,0,11.8,0c0.9,0,1.5,0.2,1.4,1.3c-0.7,4.8-1.9,9.6-4.1,14c-3.8,7.7-7.9,15.2-11.9,22.8
				c-3.1,5.9-6.3,11.9-9.4,17.9c-0.3,0.7-0.5,1.4-0.8,2.1c-0.2,0.1-0.3,0.2-0.6,0.2c-7.7-0.6-15.4-0.1-23.1-0.3
				c-0.6,0-1.1,0-1.6-0.3c-0.4-0.5-0.3-1.1-0.3-1.7c0-5.8,0-11.6,0-17.3c-0.3-0.7-0.7-0.1-0.9,0.1c-4.1,3.3-9.8,2.2-13-0.3
				c-3.5-2.8-4.6-6.6-3.8-10.8c0.8-4.5,3.8-7.3,8.2-8.4c3.1-0.9,6.1,0.1,8.8,1.8c0.3,0.2,0.4,0.5,0.8,0.4c0.1-5.3,0-10.6,0-15.9
				c0-1.7,0-3.4,0.3-5C81.9,113.2,82,113.1,82,113z"/>
			<path class="st4" d="M81.9,113.2c0.5,1.6-0.2,3.2,0,4.8c-0.2,0.4-0.1,0.9-0.1,1.3c0,4.7,0,9.4,0,14.1c0,0.4,0.1,0.9-0.1,1.3
				c-1-0.6-2-1.2-3.1-1.7c-4.3-2.1-9.3-0.6-12.2,2.7c-3.8,4.3-3,11.2,0.7,14.6c3,2.8,7.8,3.7,11.5,2.1c0.8-0.4,1.5-1,2.3-1.5
				c0.3-0.2,0.7-0.7,1,0c-0.2,0.4-0.1,0.9-0.1,1.3c0,5.6,0,11.3,0,16.9c0,0.4,0.1,0.9-0.1,1.3c-0.6,0.5-1.3,0.4-1.9,0.4
				c-5.6,0-11.2,0-16.8,0c-2,0-4.1,0-6.1,0.4c-0.9-0.4-1.5-1-2.1-1.7c-5.2-9.8-9.9-19.8-14.5-29.9c-1.8-3.9-4-7.5-5.9-11.3
				c-1.9-3.8-2.9-7.8-3.8-11.8c0-0.2-0.1-0.4-0.1-0.6c-0.4-1.7-0.4-1.8,1.5-1.8c4.7-0.1,9.3-0.2,14-0.2c0.5,0,1.1,0,1.9,0
				c-2.5-2.9-3.4-6.1-2.8-9.6c0.4-2.5,1.6-4.6,3.5-6.3c3.5-3,8.5-3.2,12.1-0.4c4.7,3.5,5.3,8.7,2,15.7
				C69.1,113.2,75.5,113.2,81.9,113.2z"/>
			<path class="st1" d="M56.5,171c8.4-1.1,16.8-0.1,25.1-0.5c0.1-0.1,0.2-0.1,0.2,0c7.1,0,14.2,0.1,21.3,0c1.3,0,2.6,0.1,3.9,0.5
				c5.7,2.9,5.8,10.6,3.2,14.3c-1.5,2.1-3.4,3.2-6,3.2c-15,0-30.1,0-45.1,0c-2.6,0-4.5-1.1-6-3.2c-2.3-3.4-2.3-8.2,0-11.6
				c0.8-1.2,1.8-2.1,3.1-2.7C56.3,171,56.4,171,56.5,171z"/>
			<path class="st1" d="M80.3,196c6.1,0,12.1,0,18.2,0c0.6,0,1.2-0.1,1.1,0.9c-1.1,6.7-3.8,12.5-9.5,16.6c-7.4,5.3-16.8,3.9-23-3.2
				c-3.3-3.8-5.2-8.3-5.9-13.3c-0.1-0.9,0.2-1,1-1C68.2,196.1,74.3,196,80.3,196C80.3,196,80.3,196,80.3,196z"/>
			<path class="st5" d="M115.7,112.8c0.3-0.4,0.8-0.2,1.2-0.2c4.7,0,9.3-0.1,14,0c1.4,0,2.5-0.1,2.7-1.7c0,0.7,0.1,1.3-0.2,1.9
				c-0.4,0.3-0.8,0.2-1.3,0.2c-5.1,0-10.2,0-15.2,0C116.5,113,116.1,113.1,115.7,112.8z"/>
			<path class="st6" d="M133.3,114.2c-0.1-0.7-0.5-1-1.3-0.9c-5.1,0-10.2,0-15.3,0c-0.4,0-0.9,0.2-1.3-0.2c0.1,0,0.1-0.1,0.2-0.1
				c1-0.2,2-0.1,3-0.1c4.5,0,9,0,13.5,0c0.4,0,0.9-0.1,1.3,0.1C133.4,113.4,133.4,113.8,133.3,114.2z"/>
			<path class="st7" d="M133.4,113c-5.9,0-11.8,0-17.7,0c0-0.1,0-0.1,0-0.2c5.9,0,11.8,0,17.8,0C133.5,112.9,133.5,113,133.4,113z"
				/>
			<path class="st8" d="M56.5,171c-0.1,0-0.2,0.1-0.3,0.1c-0.6-0.4-1.2-0.7-1.4-1.5C55.5,169.9,56.2,170.2,56.5,171z"/>
			<path class="st6" d="M100.9,113.8c-0.1-0.7-0.7-0.5-1.1-0.5c-3.6,0-7.2,0-10.8,0c-0.4,0-0.9,0.2-1.2-0.2c0.1,0,0.2,0,0.2,0
				c0.4-0.2,0.8-0.2,1.2-0.2c3.7,0,7.3,0,11,0c0.4,0,0.7,0,1,0.2C101.5,113.4,101.1,113.6,100.9,113.8z"/>
			<path class="st9" d="M101.1,113c-4.4,0-8.8,0-13.2,0c0.1-0.1,0.2-0.2,0.2-0.2c0.9-0.2,1.9-0.1,2.8-0.1c3,0,5.9,0,8.9,0
				c0.4,0,0.8-0.1,1.2,0.1C101.1,112.9,101.1,113,101.1,113z"/>
			<path class="st5" d="M101.1,112.8c-4.3,0-8.6,0-12.9,0c0.2-0.3,0.6-0.2,0.9-0.2c3.7,0,7.4,0,11.2,0
				C100.5,112.6,100.9,112.5,101.1,112.8z"/>
			<path class="st10" d="M118.1,120c0,1.5,0.2,3.1-0.5,4.5c-0.2-0.2-0.2-0.4-0.2-0.6c0.4-1.3,0.4-2.6,0.4-3.9
				C117.9,119.9,118,119.9,118.1,120z"/>
			<path class="st11" d="M115.4,114c0.5,0,0.7,0.2,0.5,0.7C115.8,114.5,115.6,114.2,115.4,114z"/>
			<path class="st12" d="M118.1,120c-0.1,0-0.1,0-0.2,0c0-0.5,0-0.9,0-1.4c0.1,0.1,0.2,0.2,0.2,0.2
				C118.3,119.1,118.2,119.5,118.1,120L118.1,120z"/>
			<path class="st13" d="M81.9,170.5c-0.1,0-0.2,0-0.2,0c0-6.1,0-12.2,0-18.3c0-0.4-0.2-0.9,0.2-1.2C81.9,157.4,81.9,164,81.9,170.5
				z"/>
			<path class="st13" d="M81.7,134.7c0-5.1,0-10.3,0-15.5c0-0.4-0.2-0.9,0.2-1.2c0,5.3,0,10.6,0,16
				C81.9,134.3,82.2,134.7,81.7,134.7z"/>
			<path class="st14" d="M118.4,120.7c0.2,0.4,0.2,0.8,0,1.2C118.2,121.5,118.4,121.1,118.4,120.7z"/>
			<path class="st15" d="M118.1,119.9c0-0.4,0-0.8,0-1.2C118.4,119.1,118.4,119.5,118.1,119.9z"/>
		</g>
	</g>
</g>
<g id="Agrupar_2_00000056407234204656350410000017086810469625015194_">
	<g id="Agrupar_1_00000140694341454426415710000013523648222125611190_">
		<g id="CORNER_xA0_Image_00000123398794009373804900000010805425451588337073_">
			<g>
				<g>
					<path class="st1" d="M159.8,128.4c1.3,0.5,2.8,0.6,4.1,0.9c3.1,0.9,5.9,2.1,8.2,4.5c2.1,2.2,2.8,4.9,2.2,7.9
						c-0.6,3.3-3.2,5.2-7.1,5.6c-1.9,0.2-2.3-0.1-2.7-2c-0.2-1.1-0.4-2.1-1-3c-1.2-1.7-3-2.3-4.9-2.3c-10-0.4-16,3.5-20.2,12.6
						c-2.7,5.8-3.9,12-2.2,18.4c1.4,5,4.9,8.3,9.6,10.1c6.6,2.6,12.8,1.1,18.6-2.6c2.8-1.8,5-4.1,7.1-6.8c0.2-0.2,0.3-0.4,0.5-0.6
						c0.2-0.2,0.4-0.7,0.8-0.5c0.4,0.2,0.4,0.6,0.4,0.9c-0.2,2.8-0.7,5.4-2,7.9c-4.6,9.2-12.1,14.7-22.3,16.4
						c-5,0.8-10,0.5-14.6-1.7c-5.9-2.7-9.2-7.5-11.1-13.5c-0.9-2.8-1.2-5.8-1.5-8.7c-0.3-0.7-0.1-1.5-0.1-2.2c0-9.4,2.9-17.8,8-25.6
						c3.7-5.7,8.6-10.2,14.8-13.2c2.8-1.4,5.9-2.3,9-2.5C155.5,128.4,157.7,128.4,159.8,128.4z"/>
					<path class="st16" d="M121.5,169.5c0.1,0,0.2,0,0.2,0c0,0.8,0,1.6,0,2.4c-0.1,0-0.2,0-0.2,0
						C121.5,171.1,121.5,170.3,121.5,169.5z"/>
					<path class="st1" d="M342.3,168.5c0.1,5.1,0,11.6-0.5,18.1c-0.2,2.4-0.4,4.8-1.1,7.2c-0.6,1.9-1.1,2.3-3.1,2.2
						c-2.6,0-5.3,0-7.9,0c-2.3,0-3.1-0.5-3.6-2.8c-1-4.1-2-8.3-3.4-12.3c-3.5-9.6-7.9-18.8-13.8-27.3c-0.7-1.1-1.5-2.1-2.5-2.8
						c-0.9-0.7-1.5-0.5-1.8,0.5c-0.5,1.4-0.6,2.9-0.6,4.4c0,8.2,0.1,16.3,1,24.4c0.5,4.1,1.2,8.2,2,12.4c0.1,0.8,0.2,1.6,0.3,2.4
						c0.1,0.8-0.3,1.2-1.1,1.2c-3.1,0-6.3,0-9.5,0c-1,0-1.5-0.7-1.9-1.6c-0.7-1.8-1-3.6-1.2-5.5c-1-10.2-0.8-20.4-0.7-30.5
						c0.1-5.6,0.3-11.2,0.9-16.8c0.3-3,0.7-6,1.6-8.9c0.2-0.8,0.5-1.5,1-2.1c0.5-0.6,1-0.9,1.8-0.9c2.2,0,4.3,0,6.5,0
						c1.4,0,2.4,0.8,3.4,1.6c3.2,2.9,5.5,6.4,7.9,9.9c4.8,7.2,9,14.7,13.2,22.3c0.3,0.6,0.6,1.6,1.4,1.5c0.9-0.2,0.6-1.3,0.6-2
						c0.2-9.1-1-18.1-3-27c-0.3-1.5-0.7-3-1-4.5c-0.3-1.3,0-1.7,1.3-1.8c2.8,0,5.7,0,8.5,0c1.2,0,1.8,0.8,2.2,1.7
						c1.1,2.4,1.4,4.9,1.8,7.4C342.2,148.2,342.3,157.6,342.3,168.5z"/>
					<path class="st1" d="M372.7,196c-6.3,0-12.5,0-18.8,0c-2.3,0-3-0.6-3.2-2.9c-0.1-1.2-0.2-2.4-0.2-3.6
						c0.1-6.2-0.3-12.3,0.2-18.5c0.4-5.8,1-11.6,1.7-17.4c0.8-6.6,1.7-13.1,3.1-19.5c0.3-1.2,0.6-2.4,1-3.5c0.2-0.6,0.6-0.8,1.3-0.8
						c11,0,22,0,33,0c0.5,0,1,0.1,1.4,0.2c0.8,0.3,1.2,0.8,0.8,1.7c-1.5,3.6-3.2,7.1-5.2,10.4c-0.5,0.9-1.1,1-2,0.4
						c-3-2.2-6.4-3.2-10.1-3.3c-6.6-0.2-12.5,3.7-12.1,11.7c0,0.7,0.1,1.3,0.4,2c0.5,1.4,1.5,1.9,2.9,1.6c1.8-0.4,3.4-1.1,5.1-1.7
						c2.8-1,5.6-1.7,8.6-1.9c1.1-0.1,2.2,0.1,3.3,0.5c0.8,0.3,1.2,0.8,0.9,1.8c-1.4,3.8-2.7,7.6-4.5,11.3c-0.5,1.1-1.1,1.4-2.2,0.9
						c-2.5-1-5-1.6-7.7-1.1c-5.2,1.1-8.4,5.4-8.2,11.2c0,0.8,0.1,1.7,0.3,2.5c1.1,5.3,5.2,8.2,10.6,7.9c3.9-0.3,7.4-1.6,10.7-3.6
						c0.7-0.4,1.4-0.8,2.1-1.2c1.4-0.7,1.7-0.7,2.5,0.7c1.9,3.3,3.3,6.9,4.7,10.4c0.3,0.7,0.6,1.5,0.8,2.2c0.3,0.9,0,1.4-0.9,1.6
						c-0.8,0.2-1.6,0-2.4,0C384.8,195.9,378.8,195.9,372.7,196C372.7,195.9,372.7,196,372.7,196z"/>
					<path class="st1" d="M232.5,164.5c-1.3-9.7-4.4-18.8-10.4-26.7c-3-4-6.7-7.2-11.7-8.8c-0.7-0.2-1.4-0.2-2-0.6
						c-1.6,0-3.2,0-4.8,0c-0.1,0.3-0.4,0.2-0.6,0.3c-2.6,0.6-4.9,1.7-7,3.2c-4.6,3.3-7.7,7.7-10.2,12.6c-3.5,6.7-5.5,13.8-6.3,21.3
						c-0.5,5-0.5,9.9,0.7,14.8c2.3,9.3,8.1,14.8,17.6,16.2c4.9,0.7,9.9,0.5,14.8,0.2c9.8-0.5,16.7-6.2,19.2-15.7
						C233.3,175.8,233.3,170.2,232.5,164.5z M219.3,174.7c-1,3.9-3.4,6.4-7.3,7.5c-3.7,1-7.5,1.1-11.2,0.1c-4.6-1.1-7.4-4.1-7.9-8.6
						c-1.1-9.9,0.7-19.2,6.5-27.6c1.1-1.6,2.5-2.9,4.2-3.9c1.8-1.1,3.6-1,5.4,0c2.5,1.5,4.2,3.7,5.7,6.2c2.9,4.9,4.3,10.2,4.9,15.8
						c0.2,1.7,0.3,3.3,0.3,5C219.8,171.1,219.7,172.9,219.3,174.7z"/>
					<path class="st1" d="M287.6,194.3c-0.1-1.8-0.2-3.6-0.5-5.4c-1.3-7.4-4.8-13.8-9.5-19.5c-1.3-1.5-2.6-3-3.8-4.6
						c-1-1.2-0.9-1.6,0.3-2.6c0.6-0.6,1.3-1.1,2-1.6c2.7-2,5.1-4.2,6.8-7.1c3.6-6,3.2-13.8-1-18.5c-3-3.3-7-4.6-11.3-5.1
						c-4.6-0.5-9.2-0.1-13-0.2c-4.5,0-8.2,0-11.9,0c-2.3,0-2.9,0.4-3.8,2.7c-0.9,2.6-1.3,5.3-1.6,8.1c-0.9,7.1-1,14.3-1.1,21.4
						c-0.1,8.7-0.1,17.4,0.6,26c0.2,2.2,0.4,4.4,1.2,6.4c0.3,0.9,0.9,1.8,2,1.8c3.8,0,7.7,0,11.5,0c1.2,0,1.6-0.5,1.3-1.7
						c-0.2-1.2-0.6-2.3-0.8-3.5c-0.9-4.2-1.9-8.5-2.1-12.8c-0.1-1.5,0.3-2.9,1.2-4c1.6-2,3.6-3.4,6-4.1c1-0.3,1.9-0.1,2.7,0.5
						c1.1,0.8,2,1.9,2.7,3c4,6.5,6.3,13.4,6.7,21c0.1,1,0.4,1.3,1.3,1.5c1,0.2,2.1,0.1,3.1,0.1c3.1,0,6.1,0,9.2,0
						C287.4,195.9,287.7,195.6,287.6,194.3z M270.7,149.7c-2.1,3.4-5.3,5.6-8.6,7.6c-1.9,1.1-3.8,2.1-6,2.7
						c-2.2,0.6-3.4-0.1-3.7-2.5c0-0.2-0.1-0.5-0.1-0.7c0-1,0-2.1,0-3.1c0-2.9,0.1-5.8,1-8.6c1.2-3.9,3.6-5.8,7.7-6
						c2.1-0.1,4.1-0.1,6.1,0.6C271.7,141.4,273.2,145.6,270.7,149.7z"/>
					<path class="st1" d="M440.5,173.5c-2.1-3.2-4.7-6-7.1-9c-0.7-0.9-0.7-1.6,0.2-2.3c1.2-0.9,2.3-1.8,3.5-2.7
						c4.3-3.5,7.4-7.7,7.8-13.4c0.4-5.1-0.9-9.6-5.2-12.8c-3.5-2.6-7.5-3.5-11.7-3.6c-7.9-0.1-15.7-0.1-23.6-0.1
						c-0.8,0-1.4,0.3-1.8,0.9s-0.7,1.3-1,2c-1.2,3.7-1.6,7.5-1.9,11.3c-0.6,7.8-0.8,15.6-0.8,21.9c0,8.6,0,15.8,0.7,22.9
						c0.2,2,0.5,4,1.2,5.9c0.4,0.9,1,1.5,2,1.5c3.7,0,7.4,0,11.1,0c1.5,0,1.8-0.4,1.5-1.9c-1.2-5.1-2.4-10.1-2.8-15.4
						c-0.2-2.1,0.4-3.9,1.8-5.5c1.3-1.4,2.8-2.3,4.5-3.1c1.9-0.8,3.4-0.3,4.7,1.1c1.3,1.4,2.3,3,3.1,4.6c3,5.9,4.9,12.1,5.3,18.7
						c0,0.7,0.4,1.1,1.1,1.2c0.5,0.1,1,0.2,1.4,0.2c3.7,0,7.4-0.1,11.1-0.1c1.1,0,1.6-0.4,1.6-1.6
						C447.2,186.7,444.7,179.9,440.5,173.5z M431,148.8c-0.9,1.8-2.2,3.3-3.7,4.6c-3.3,2.9-7.1,5.1-11.3,6.6
						c-2.2,0.8-3.3,0.1-3.8-2.2c-0.1-0.7-0.1-1.3-0.2-2c0-0.7,0-1.4,0-2c0-2.2,0.2-4.4,0.6-6.5c1.1-6,4-8.3,10.1-8.1
						c1.9,0.1,3.6,0.3,5.3,1.1C431.4,141.9,432.6,145.4,431,148.8z"/>
				</g>
			</g>
		</g>
		<g id="Agrupar_3_xA0_Image_00000137091849878808641430000005676702908206211732_">
			<g>
				<g>
					<path class="st1" d="M404.4,63.6c0,0.1,0,0.2,0,0.2c0.4,0.4,1,0,1.4,0.3c2.4,0.5,4.6,1.3,6.4,3.1c2,2.1,2.6,4.5,1.9,7.3
						c-0.6,2.2-2.6,3.6-4.9,3.6c-0.6,0-0.9-0.2-1.1-0.8c0-0.1-0.1-0.2-0.1-0.3c-0.3-1.5-0.4-3.2-2.1-3.9c-2-0.9-4-0.8-5.9,0
						c-2.5,1-4.1,2.9-5.2,5.2c-1.8,3.6-2.5,7.4-2.7,11.4c-0.2,3.6,0,7.2,1.5,10.6c1.9,4.2,7,5.9,11,3.5c3-1.8,3.5-6.1,1-8.7
						c-0.6-0.6-1.3-1.1-2-1.7c-0.8-0.8-0.8-1.2,0.2-1.7c2.6-1.5,5.5-2.6,8.3-3.7c0.9-0.3,0.9,0.4,1.1,0.9c0.6,2.2,0.8,4.5,1.1,6.8
						c0.3,2.5,0.5,5,0.7,7.5c0.5,5.3-2.2,9.6-7.3,11.4c-6.7,2.4-17.5,1.5-21.6-9.4c-4.4-11.8-3-23.2,3.8-33.9
						c2.5-3.9,6.1-6.4,10.7-7.2c0.2,0,0.6,0,0.6-0.4c0.2,0,0.5,0,0.7,0c0.6,0.2,1.3,0.2,1.9,0C403.9,63.6,404.2,63.6,404.4,63.6z"/>
					<path class="st17" d="M403.7,63.6c-0.6,0.4-1.3,0.4-1.9,0C402.4,63.6,403.1,63.6,403.7,63.6z"/>
					<path class="st1" d="M244.2,77.3c0.1-3.3,0.1-6.5,0.4-9.8c0.1-0.6,0.2-1.2,0.3-1.8c0.2-0.7,0.6-1.1,1.4-1c2.1,0,4.2,0,6.2,0
						c1.4,0,1.5,0.3,1.3,1.6c-2.1,9.5-1.7,19,0.4,28.5c0.3,1.4,0.8,2.8,1.6,4.1c0.7,1.2,1.2,1.2,2,0.1c1-1.4,1.7-3,2.2-4.6
						c2.4-7.1,2.8-14.5,2.4-21.9c-0.1-2.1-0.4-4.1-0.7-6.2c-0.2-1.4-0.1-1.6,1.3-1.6c2,0,4,0,6,0c1.5,0,1.8,0.2,1.5,1.8
						c-0.6,4.1-1,8.2-0.9,12.3c0.2,6.2,0.7,12.4,2.8,18.3c0.2,0.7,0.5,1.3,0.9,1.9c0.6,0.9,1,0.9,1.7,0.1c0.5-0.5,0.8-1.1,1-1.7
						c1.9-4.1,2.7-8.4,3.3-12.9c0.8-6.1,0-12.1-1.3-18c-0.4-1.7-0.2-1.8,1.6-1.9c1.5,0,3,0.1,4.4,0c1.1-0.1,1.7,0.5,2,1.5
						c0.6,1.8,0.6,3.6,0.7,5.4c0.4,14.8-3.1,28.7-10.6,41.5c-0.5,0.8-1.1,1.5-1.6,2.3c-0.5,0.8-1.1,0.6-1.6,0
						c-0.7-0.8-1.3-1.8-1.7-2.7c-1.5-3.2-3-6.4-4.6-9.6c-0.4-0.8-0.8-1.5-1.2-2.2c-0.7-1-1-0.9-1.6,0c-1.1,1.7-1.9,3.5-2.7,5.3
						c-1.2,2.6-2.3,5.2-3.8,7.7c-1.5,2.6-2,2.6-3.6,0.1c-4.1-6.2-6.5-13.2-8.1-20.4C244.5,88.3,244.1,82.8,244.2,77.3z"/>
					<path class="st1" d="M203.8,87.7c0,8.8,0.1,15.2-0.5,21.5c-0.1,1.4-0.3,2.8-0.7,4.1c-0.3,0.8-0.8,1.2-1.7,1.2
						c-1.8-0.1-3.5-0.1-5.3,0c-1.3,0.1-1.9-0.5-2.2-1.7c-0.7-3.1-1.2-6.2-2.2-9.2c-2.2-7.3-5.1-14.3-9-20.9c-0.4-0.7-0.9-1.4-1.5-2
						c-0.6-0.7-1.1-0.6-1.4,0.3c-0.3,1-0.4,2-0.4,3.1c0,9.3,0.3,18.7,2,27.9c0.4,2.4,0.3,2.5-2,2.5c-1.3,0-2.6,0-3.8,0
						c-1.5,0-1.8-0.2-2.2-1.8c-0.6-2.7-0.7-5.3-0.8-8.1c-0.3-7.3-0.2-14.6-0.1-21.9c0.1-4.6,0.3-9.1,1.1-13.7c0.7-4.1,0.9-4.3,5-4.4
						c1.9-0.1,3.2,0.6,4.3,2c2.8,3.6,4.9,7.5,7,11.5c2,3.8,3.8,7.8,5.8,11.7c0.1,0.3,0.3,0.6,0.4,0.8c0.1,0.2,0.2,0.5,0.5,0.4
						s0.3-0.4,0.3-0.6c0.1-0.7,0.1-1.3,0.1-2c0-7.2-1-14.3-2.4-21.4c-0.5-2.4-0.5-2.4,2-2.4c1.1,0,2.2,0.1,3.4,0
						c1.4-0.1,2.1,0.6,2.4,1.8c0.8,2.6,1,5.2,1.2,7.9C203.6,79.6,203.8,84.9,203.8,87.7z"/>
					<path class="st1" d="M138.5,81.9c0-1.5-0.7-2.8-1-4.2c-0.5-0.6-0.2-1.3-0.5-1.9c-1-3.2-2-6.3-3.1-9.4c-0.4-1-0.1-1.4,1-1.4
						c1.7,0,3.4,0.1,5,0c1.4-0.1,2.1,0.5,2.7,1.7c1,2.2,1.5,4.4,2,6.7c0.9,3.9,1.6,7.9,2,11.9c1.8-0.8,3.4-1.6,4.5-3.4
						c3.2-5,5.9-10.2,7.3-16c0.2-0.9,0.8-1.3,1.7-1.3c1.7,0,3.4,0.1,5.1,0c1,0,1.4,0.3,1.3,1.3c-0.2,3.9-1.7,7.3-3.6,10.7
						c-1.3,2.3-2.8,4.4-4.3,6.6c-1.1,1.6-1.2,1.6,0.1,3.3c3.9,5.5,6.8,11.4,8.1,18c0.5,2.8,0.8,5.6,0.9,8.4c0,1.3-0.4,1.6-1.8,1.6
						c-2.1-0.1-4.1-0.1-6.2-0.1c-1.5,0-1.8-0.3-1.8-1.8c0-4.1-0.4-8.2-1.5-12.2c-0.7-2.6-1.6-5.2-3.2-7.4c-0.8-1.1-1.2-1.2-2.2-0.3
						c-0.9,0.8-1.7,1.7-2.6,2.5c-0.4,0.4-0.3,0.8-0.2,1.3c0.5,5,1.2,9.9,1.1,15c0,0.8-0.2,1.6-0.3,2.4c-0.2,0.6-0.7,0.7-1.3,0.7
						c-2.1,0-4.1,0-6.2,0c-1.1,0-1.6-0.4-1.7-1.5c-0.1-0.6-0.1-1.1,0-1.7c0.5-5.2,0.6-10.4,0.2-15.6c-0.1-0.8,0.3-1.1,0.2-1.9"/>
					<path class="st1" d="M139.4,89"/>
					<path class="st1" d="M333.1,114.5c-4,0-8,0-12,0c-1.2,0-1.8-0.5-2-1.6c-0.2-1.3-0.1-2.5-0.2-3.8c-0.2-7.9,0.1-15.8,0.9-23.7
						c0.6-5.8,1.2-11.7,2.3-17.5c0.6-3.2,0.6-3.2,3.9-3.2c6,0,11.9,0,17.9,0c0.5,0,1,0,1.4,0.1c0.8,0.1,1.2,0.6,0.9,1.4
						c-1,2.7-2,5.3-3.3,7.8c-0.5,0.9-1,0.7-1.6,0.2c-1.8-1.5-3.9-2.2-6.3-2.2c-3.4-0.1-7,2-7.5,6.8c-0.1,1-0.1,2,0.1,3
						c0.4,1.7,1.1,2.1,2.7,1.5c1.9-0.7,3.8-1.7,5.8-2.2c1.3-0.3,2.7-0.6,4-0.1c0.7,0.2,1.3,0.6,1,1.5c-0.9,2.9-1.8,5.9-2.9,8.7
						c-0.3,0.7-0.7,0.9-1.4,0.5c-5.2-2.9-10.5,0.9-10.1,7.7c0,0.8,0.2,1.7,0.4,2.5c1,4,4,5.8,8,5.1c1.9-0.4,3.6-1.2,5.2-2.3
						c0.5-0.3,1-0.7,1.5-1c0.8-0.6,1.3-0.5,1.8,0.5c1.4,3,2.5,6.1,3.5,9.3c0.3,1.1-0.1,1.5-1.3,1.5
						C341.5,114.6,337.3,114.6,333.1,114.5C333.1,114.6,333.1,114.5,333.1,114.5z"/>
					<path class="st1" d="M434.6,64.7c3.4,0,6.7,0,10.1,0c1.9,0,2.2,0.4,1.5,2.2c-0.9,2.3-1.8,4.6-2.9,6.8c-0.5,0.9-0.9,1-1.7,0.4
						c-1.8-1.5-3.8-2.1-6.2-2.2c-3.9-0.2-7.2,2.4-7.7,7c-0.1,0.9-0.1,1.8,0.1,2.7c0.4,1.7,1,2.1,2.6,1.5c1.1-0.4,2.2-0.9,3.3-1.4
						c1.7-0.7,3.5-1.2,5.4-1.1c2,0.1,2.5,0.7,1.9,2.6c-0.8,2.4-1.5,4.8-2.4,7.1c-0.6,1.6-0.6,1.6-2.2,1c-3.6-1.4-6.7-0.4-8.4,2.5
						c-0.9,1.6-1.2,3.4-1.2,5.3c0,0.9,0.2,1.8,0.4,2.7c1,3.9,4,5.7,8,4.9c2.1-0.4,4-1.5,5.7-2.7c0.4-0.3,0.9-0.6,1.3-0.8
						c0.6-0.4,1-0.2,1.3,0.4c1.5,3.2,2.7,6.4,3.7,9.8c0.3,1-0.4,1.3-1.2,1.3c-8.2-0.2-16.5,0-24.7-0.1c-1.1,0-1.6-0.5-1.8-1.5
						c-0.1-0.8-0.2-1.6-0.2-2.4c-0.4-12.3,0.6-24.5,2.2-36.6c0.4-2.6,0.8-5.3,1.4-7.9c0.2-1,0.7-1.5,1.9-1.5
						C428,64.8,431.3,64.7,434.6,64.7z"/>
					<path class="st1" d="M290.3,103.1c-0.1-8.1,0.9-16.8,1.9-25.5c0.4-3.8,0.9-7.5,1.7-11.2c0.3-1.2,0.8-1.8,2.2-1.7
						c2.1,0.1,4.2,0,6.4,0c1.5,0,1.9,0.5,1.4,1.9c-0.7,2.3-1.5,4.7-2.3,7c-2.4,8-3.8,16.1-3.5,24.4c0,1.8,0.3,3.5,1,5.1
						c1.3,3.2,4.3,4.4,7.5,3.1c1.8-0.7,3.2-1.9,4.5-3.2c0.2-0.2,0.3-0.3,0.5-0.5c1.3-1.2,1.6-1.1,2.1,0.5c1,3.3,1.6,6.7,2.2,10.1
						c0.2,1.1-0.5,1.4-1.3,1.4c-7.5-0.2-14.9,0-22.4-0.1c-1.2,0-1.5-0.8-1.7-1.8C290.1,109.8,290.4,106.8,290.3,103.1z"/>
					<path class="st18" d="M137.1,75.8c0.4,0.6,0.4,1.2,0.5,1.9C136.8,77.2,137.1,76.5,137.1,75.8z"/>
					<path class="st19" d="M405.9,64.1c-0.5,0-1,0.1-1.4-0.3C404.9,63.9,405.5,63.7,405.9,64.1z"/>
					<path class="st1" d="M241.5,88.6c-1-6.6-2.9-12.9-6.8-18.4c-2.1-3-4.6-5.5-8.4-6.3c-0.2,0-0.3-0.1-0.3-0.3c-0.1,0-0.2,0-0.2,0
						c-0.6,0.4-1.1,0.4-1.7,0c-0.2,0-0.3,0-0.5,0c-0.2,0.5-0.8,0.4-1.2,0.5c-2.1,0.8-3.9,2-5.4,3.6c-1.4,1.5-2.6,3.2-3.5,4.9
						c-3.1,5.6-4.8,11.6-5.5,17.9c-0.5,4.4-0.6,8.9,0.5,13.3c1.7,7.1,6.5,11.4,13,11.5c2.2,0,4.5,0.1,6.7,0
						c5.1-0.2,8.9-2.4,11.4-6.9c1-1.9,1.6-3.9,2-6C242.4,97.9,242.2,93.3,241.5,88.6z M232.9,99.9c-0.8,2.4-2.5,3.8-4.9,4.5
						c-2.2,0.6-4.5,0.6-6.7-0.1c-2.9-0.9-4.4-3.1-4.9-5.9c-0.7-4.6-0.2-9.1,0.9-13.6c0.8-3.2,1.9-6.3,4.1-8.9
						c0.4-0.4,0.7-0.8,1.2-1.2c1.6-1.3,3-1.4,4.6,0.1c2.5,2.2,3.7,5.2,4.7,8.3c1.2,3.8,1.7,7.7,1.7,11.6
						C233.7,96.4,233.6,98.1,232.9,99.9z"/>
					<path class="st1" d="M378.8,80.4c-1.3-4.1-3.4-7.8-6.5-10.9c-3.1-3.1-6.7-5-11.3-4.8c-2.3,0.1-4.6,0.1-6.8,0
						c-1.2,0-1.9,0.5-2.2,1.6c-0.5,1.4-0.8,2.9-1,4.4c-0.9,7.3-1,14.6-1,21.9c0,4.1,0,8.2,0.2,12.3c0.1,2.8,0.2,5.6,1,8.3
						c0.3,1,0.8,1.4,1.9,1.4c4.7-0.1,9.4,0,14,0c4.8-0.1,8.5-2.1,11-6.2c1.1-1.9,1.9-3.9,2.3-6.1C381.7,94.8,381.1,87.5,378.8,80.4z
						 M370.6,102.3c-1,1.8-2.3,3.3-4.3,4.2c-2.4,1-4.8,0.2-6.1-2.1c-1-1.8-1.5-3.8-1.7-5.8c-0.6-6.9-0.7-13.9,0.1-20.8
						c0.2-1.5,0.6-2.9,1.4-4.2c1.1-1.8,2.5-2.2,4.4-1.2c2.6,1.4,4.1,3.7,5.3,6.3c2.1,4.5,2.7,9.3,2.9,14.1
						C372.5,96.1,372.2,99.3,370.6,102.3z"/>
				</g>
			</g>
		</g>
	</g>
</g>
<g id="Layer_2">
	<path class="st1" d="M133.7,65.7c0,0,9.2,31.6,6.3,48.1c-0.3,1.6,7.5-6.1,7.5-6.1L140,68.6L133.7,65.7z"/>
</g>
</svg>
