<?xml version="1.0" encoding="utf-8"?>
<!-- Generator: Adobe Illustrator 26.0.0, SVG Export Plug-In . SVG Version: 6.00 Build 0)  -->
<svg version="1.1" xmlns="http://www.w3.org/2000/svg" xmlns:xlink="http://www.w3.org/1999/xlink" x="0px" y="0px"
	 viewBox="0 0 480 266.9" style="enable-background:new 0 0 480 266.9;" xml:space="preserve">
<style type="text/css">
	.st0{display:none;}
	.st1{display:inline;stroke:#000000;stroke-miterlimit:10;}
	.st2{display:inline;}
	.st3{fill:#6D4258;}
	.st4{fill:#6D4259;}
	.st5{fill:#6E4259;}
	.st6{fill:#7E586C;}
	.st7{fill:#FEFEFE;}
	.st8{fill:#448B9F;}
	.st9{display:none;fill:#B7F1CD;}
	.st10{fill:#B7F1CD;}
	.st11{fill:#8BCFB7;}
	.st12{fill:#7BBDAB;}
	.st13{fill:#4D2B3E;}
	.st14{fill:#FCFBFB;}
	.st15{fill:#4E2C3F;}
	.st16{fill:#573749;}
	.st17{fill:#FDFDFD;}
	.st18{fill:#543346;}
	.st19{fill:#57384A;}
	.st20{fill:#563547;}
	.st21{fill:#DFD9DC;}
	.st22{fill:#835E72;}
	.st23{fill:#C9BFC5;}
	.st24{fill:#5C3D4E;}
	.st25{fill:#E4DFE2;}
	.st26{fill:#CCC2C8;}
	.st27{fill:#CBC1C7;}
	.st28{fill:#EBE7E9;}
	.st29{fill:none;}
	.st30{fill:#533245;}
	.st31{fill:#F2EFF0;}
	.st32{fill:#593A4B;}
	.st33{fill:#7C6371;}
	.st34{display:inline;fill:#693E54;}
	.st35{clip-path:url(#SVGID_00000005227044321767598350000011541901297502679424_);fill:#6D4258;}
	.st36{clip-path:url(#SVGID_00000005227044321767598350000011541901297502679424_);fill:#7F4F6A;}
	.st37{clip-path:url(#SVGID_00000005227044321767598350000011541901297502679424_);fill:#8E5978;}
</style>
<g id="Layer_2" class="st0">
	<rect x="-33" y="-27.1" class="st1" width="537" height="328"/>
</g>
<g id="Layer_3" class="st0">
	<g class="st2">
		<path class="st3" d="M201.9,88c-0.3-0.3-1.1,0-1.7,0c-3.6,0-7.4-0.7-10.7,0.3c-2.2,0.6-3.6,3.7-5.2,5.5c-1.4-2.4-4-4.1-7.7-2.6
			c-8.4,3.4-14.1,10-18.9,17.3c-6,9-2.9,21,7,25.7c6.1,2.9,14.9,2.2,19.2-5.6c1.3,1.3,2.5,3.8,4.1,4c4,0.6,8.1,0.2,12.2,0.2
			c0.6,0,1.2-0.7,1.7-1.1c-0.5-0.3-1-0.5-1.4-0.8c-0.7-0.5-1.6-1-1.9-1.7c-1.8-5.1-4.1-10.1-5.1-15.4c-1.9-10.1-2.3-14.8,7.8-22.3
			c0.6-0.5,1.5-1,1.7-1.6C203.1,89.4,202.5,88.5,201.9,88z M175.4,122.8c-1,0-1.8-0.2-2.5-0.6c-0.3,0.2-0.6,0.3-1,0.4
			c-1.1,0.3-2.3,0.2-3.3-0.3c-1-0.4-1.8-1.1-2.4-2c-0.6-1-0.9-2.8-0.5-3.9c0.2-0.4,0.3-0.8,0.5-1.2c0,0,0,0,0,0c0,0,0,0,0,0
			c0.4-0.8,0.9-1.6,1.6-2.2c0.1-0.1,0.1-0.1,0.2-0.2c0.1-0.2,0.2-0.3,0.4-0.5c0,0,0,0,0,0c-0.1,0.1-0.1,0.2-0.2,0.2
			c-0.2,0.2-0.3,0.4,0,0c0.1-0.1,0.1-0.2,0.2-0.3c0.1-0.2,0.2-0.4,0.3-0.7c0.4-0.8,1-1.5,1.6-2.2c1.7-1.8,4.7-1.8,6.6-0.4
			c1.6,1.3,2.2,3.2,1.8,5.1C181.5,116.8,180.4,122.8,175.4,122.8z"/>
		<path class="st3" d="M177.7,188.9c-6.3-1.1-12.6-2.2-19-3c-6-0.8-12-1.2-18-1.7c-0.5,0-1.4,0.9-1.4,1.4
			c-0.4,5.9-0.6,11.8-0.9,17.6c5-2.6,9.6-5.1,14.4-7.4c4.1-2,11.3,1,12.7,5.4c0.3,1,0,2.4-0.5,3.3c-0.8,1.4-2.1,2.5-3.1,3.9
			c-3.3,4.9-8.7,7.6-13,5.4c-5.4-2.7-10.6-6.1-15.5-9.6c-2.7-1.9-6.2-3.5-5.5-8.1c0.8-5,1.2-10,1.7-15c1.1-9.9,3.4-19.1,13.5-23.9
			c2.1-1,4.8-3.6,6-3c8.4,4.2,16.5,9,24.8,13.5c0.4,0.2,1.7-0.2,1.7-0.4c0.4-6.2,0.8-12.3,0.8-18.5c0-1.6-1.3-4.2-2.5-4.5
			c-8.7-2.2-17.5-4-26.4-5.8c-3.6-0.7-7.4-2-10.8-1.4c-2.3,0.4-4.3,3.6-5.9,5.9c-6.5,9.4-12.9,19-19.2,28.6
			c-2.4,3.7-6.5,7.5-4.7,12.1c3.2,8.3,7.1,16.5,11.6,24.2c8,13.6,19.7,20.7,36,17.6c2.6-0.5,5.6-1.4,7.4-3.2
			c5.5-5.7,10.5-11.9,15.6-17.9c0.6-0.7,0.7-1.8,0.8-2.7c0.2-4,0.3-8,0.3-12C178.6,189.4,178.1,188.9,177.7,188.9z"/>
		<path class="st3" d="M143.9,116.6c-2.2,0.5-4.4,1.3-6.7,1.6c-1.6,0.2-4.8-0.1-4.8-0.4c-1.3-12.2-2.2-24.4-3.3-36.6
			c-0.3-3.3-0.4-7.3-2.2-9.7c-2.3-3.3-6.2-5.5-9.6-7.9c-4.1-2.9-6.9-1.5-8.5,3.1c-1.8,5.1-4,10.2-5.8,15.3c-1.7,4.8-3,9.6-4.5,14.4
			c-1.8-11.2-3.5-22.4-5.4-33.6c-0.4-2.4-0.3-5.2-2.6-6.6c-6,0.3-12.1,0.5-17.9-0.6c-7.9,0.6-15.9,1.1-24.7,1.7
			c-0.2,0.5-0.3,0.9-0.5,1.4c5.2,1.9,9.6,3.4,13.9,5.1c1.7,0.7,4.2,1.6,4.6,2.9c0.8,2.4,0.4,5.2,0.5,7.8c0.1,7.9,0.2,15.7,0.3,23.6
			c0.2,11.7,0.4,23.4,0.6,35.1c0.2,14.1,0.2,28.2,0.3,42.2c0,9.3,0,18.5,0,27.8c0,0.6-0.2,1.3-0.6,1.7c-2.6,3.1-6.1,4-9.7,2.4
			c-5.5-2.4-10.8-5.3-16.2-7.9c-0.4-0.2-0.9-0.1-1.4-0.1c0,0.3-0.2,0.8,0,1c1.9,3.1,3.5,6.3,5.7,9.1c3.2,3.9,6.3,8.4,10.4,11.1
			c8.8,5.8,18.4,2.8,27.7,0.5c0.3-0.1,0.7-0.7,0.7-1c0.3-10.7,0.6-21.5,0.8-32.2c0.2-9.7,0.4-19.4,0.6-29.1
			c0.2-12.8,0.4-25.6,0.5-38.4c0.1-8.3,0-16.6,0-24.4c1.9,6,3.6,12.4,6,18.6c1.2,3-0.1,8.3,5.6,8.1c2.1-0.1,5.6-0.5,6.2-1.8
			c4.7-9.9,8.9-20.1,13.3-30.2c1.2,4.8,1.4,9.4,1.6,13.9c0.1,3.1,0.2,6.2,0.3,9.3c0.1,7.4,0.2,14.8,0.3,22.2c0,1,0.2,2.1,0.7,2.9
			c0.2,0.4,1.7,0.4,2.1,0.1c7.7-6.9,15.3-13.8,22.9-20.8c0.4-0.4,0.4-1.1,0.6-1.6C145.1,116.6,144.5,116.5,143.9,116.6z"/>
		<path class="st3" d="M227.4,192.5c-0.4-3.7,2.3-8.1-2.3-10.9c-2.2-1.3-4.5-2.4-6.7-3.8c-4.7-2.9-8.6-2.6-12.3,2
			c-1.8,2.3-4.4,3.9-5.9,5.2c-1.2-1.3-2.9-4.5-4.8-4.6c-4.5-0.4-9.2,0.7-13.8,1.2c-0.3,0-0.5,0.5-0.7,0.8c1,0.8,2,1.6,3,2.4
			c2.8,2.8,7.5,5.3,8.1,8.4c1.2,7.2,0.6,14.7,0,22.1c-0.3,2.9-2.6,5.6-4,8.4c-0.2,0.4-0.8,0.7-1.1,1c0.6,0.3,1.1,0.8,1.7,0.8
			c2.6,0,5.2,0.1,7.7-0.3c2.8-0.5,6.7,0,7.1-4.1c0.6-6.2,0.9-12.5,0.8-18.8c-0.1-4.2,0.6-7.8,3.6-10.7c1.2-1.2,3.5-3.2,4-2.9
			c3.2,2.1,6.1,4.8,9.1,7.3c1.3,1.1,2.6,2.3,3.9,3.4c0.8-1.3,1.7-2.6,2.3-4C227.5,194.6,227.5,193.5,227.4,192.5z"/>
		<path class="st3" d="M306.3,132c5,5.9,11.3,4.9,17.7,4.6c0.5,0,1.4-0.8,1.5-1.4c1.4-6.2,2.6-12.3,3.9-18.5
			c0.1-0.6-0.1-1.5-0.5-1.8c-0.3-0.3-1.3-0.1-1.7,0.2c-1.5,1.1-2.9,2.4-4.4,3.5c-3.1,2.3-5.9,5.9-10.4,2.4c-2-1.6-4.2-3-6.1-4.8
			c-1-1-2.4-3-2.1-3.8c2.7-5.6,5.6-11.1,8.7-16.4c1-1.7,2.2-4.6,4.9-1.8c1.9,2.1,3.4,4.5,5.2,6.7c0.5,0.6,1.2,1.2,1.9,1.2
			c0.4,0,1.3-0.8,1.4-1.4c0.6-3.9,1.1-7.8,1.7-11.8c-0.2,0-0.3,0-0.5-0.1c0-1.6-0.1-3.3,0-4.9c0.2-3.2-1.4-4.4-4.3-4.2
			c-2.4,0.1-4.8,0.6-7.2,0.5c-5.3-0.1-9.7,2-12.3,6.3c-4.2,6.8-7.6,14.1-11.6,21c-2.7,4.6-2.2,8.5,1.4,12
			C297.6,123.8,302.4,127.5,306.3,132z"/>
		<path class="st3" d="M255.1,80.2c0.4-0.3,0.5-0.8,0.8-1.2c-0.5-0.3-1-0.8-1.6-0.8c-2.4-0.1-4.7,0.1-7.1-0.1c-6.9-0.6-7.9,0-10,6.6
			c-4.3-4.7-6.6-5.3-11.8-1.4c-4.3,3.2-8.7,6.7-12,10.9c-7.4,9.7-9.7,12.4-4.2,22c3.3,5.9,7.8,10.6,15.2,9.3c4.1-0.7,8-3,11.8-4.5
			c0.3,1.5,0.8,4.4,1.2,7.3c0.4,2.7,1.8,5.7,1,7.9c-1.7,4.7-9.3,7.6-14.3,6.4c-1.1-0.3-2.3-0.1-3.4,0.2c-0.3,0.1-0.5,1.4-0.3,2.1
			c1,3.6,2,7.2,3.4,10.7c0.7,1.7,1.3,4.9,4.4,3.4c5.9-2.9,11.6-5.9,17.3-9.1c6.6-3.8,10.4-9,8-17.2c-2.6-8.8-5.7-17.6-7.3-26.6
			C243.9,92.5,243.7,89.4,255.1,80.2z M230.6,111.1c-1.2,1.7-2.9,2.7-5,2.4c-1.1-0.1-2.1-0.7-2.9-1.5c-0.6-0.1-1.2-0.3-1.8-0.6
			c-1.8-1-3.1-3.7-2.3-5.6c0.8-2,1.9-3.3,3.3-4.7c-0.1-1.3,0.3-2.6,1.4-3.8c1.7-1.9,5.4-2,7.1,0C233.4,101,233.4,107.3,230.6,111.1z
			"/>
		<path class="st3" d="M261.7,132c0,1.2,1.6,3.3,2.6,3.4c3.5,0.3,7.2,0.5,10.5-0.3c7-1.9,13.8-9.9,13.7-15.2c0-0.4-0.2-0.7-0.3-1.1
			c-0.4,0.2-0.8,0.3-1.1,0.6c-1,0.9-1.8,2.5-2.9,2.7c-1.9,0.4-4.8,6.3-5.5,0.5c-1.1-9,0-18.2,0-27.3c0-1.8-0.2-5-0.7-5.1
			c-3.9-0.6-7.9-0.7-11.8-0.8c-1.9,0-3.9,0.3-6,0.5c0-0.1-0.1,0.1-0.1,0.4c0.3,4.7,0.9,9.5,1,14.2
			C261.5,113.7,261.4,122.8,261.7,132z"/>
		<path class="st3" d="M422.3,204.5c-2.6,2.2-4.8,4.8-7.7,6.6c-7.1,4.5-14.5,2-15.6-5.9c-1-6.8-0.5-13.7-0.4-20.6
			c0.1-4.7,0.3-9.5,0.8-14.2c1-9.2,2.2-18.4,3.3-27.5c1-8.6,2-17.1,3.1-25.7c1.2-9.2,2.7-18.3,4-27.7c8.9-8.2,18-16.6,27.8-25.6
			c-4.7,0.3-9,0.6-13.3,0.8c-10,0.3-19.9,0.6-29.9,0.9c-0.8,0-2.3,0.4-2.3,0.7c-1.3,9.6-2.4,19.3-3.5,29c-0.8,7.5-1.5,15-2,22.5
			c-1,14.7-2.4,29.4-2.7,44.1c-0.3,14.6,0.2,29.2,1.1,43.8c0.4,6.3,2.4,12.5,4.2,18.6c1,3.4,6.5,5.4,9.4,3.4
			c5.5-3.8,10.8-8.1,16-12.4c3.1-2.6,5.8-5.6,8.6-8.6c0.3-0.4-0.1-1.4-0.2-2.2C422.9,204.4,422.5,204.3,422.3,204.5z"/>
		<path class="st3" d="M362.8,204.5c-0.8,0.2-1.7,0.2-2.3,0.6c-0.9,0.5-1.6,1.3-2.3,2c-6,5.9-7.9,6.4-13.9,2.2
			c-3.3-2.3-8.2-4.4-5.5-10.4c0.5,0.4,1,0.7,1.5,1c3.2,1.4,7.1,4.5,9.5,3.6c5.6-2,10-6.3,10.5-13.1c0.4-5.8,1-11.6,1-17.5
			c0-1.2-2.1-3.1-3.4-3.3c-2.6-0.4-5.3,0.4-8,0.4c-5.1-0.1-9.6,1.9-12.1,6c-4.8,7.8-8.9,16.1-13.1,24.3c-0.6,1.2-0.3,3.7,0.6,4.7
			c4.3,4.8,8.8,9.3,13.4,13.8c4,4,8.7,6.7,14.5,5.9c2.3-0.3,5.9,1.4,6.8-2.7c1.1-5,2.1-10.1,3.1-15.1
			C363.2,206.1,362.9,205.3,362.8,204.5z M341.5,187.4c0.4-2.2,1.6-4.2,3.6-5.2c0.8-0.4,1.6-0.7,2.5-0.9c0.6-0.1,1.2-0.2,1.8-0.2
			c-1.8,0.2-0.4,0,0,0c0.4-0.1,0.8-0.1,1.2-0.1c1.1-0.1,2.2,0.1,3.2,0.6c1.1,0.6,2,1.8,2.3,3.1c1,1.3,1.4,3,0.9,4.4
			c-0.8,2.4-2.9,3.8-5.3,3.8c-1.6,0.8-3.5,0.9-5.3,0.9C342.8,193.8,340.9,190.6,341.5,187.4z"/>
		<path class="st3" d="M324.8,222.5c-2.1-3.1-5.2-6-6.2-9.4c-1.4-5.2-1.5-10.9-1.9-16.3c-0.7-9-2-18-1.5-26.9
			c0.6-9.1,3-18.2,4.7-27.4c-4.2,1.4-8.6,2.6-12.5,4.5c-3.4,1.6-8,3-7.2,8.2c1.4,9.3,3.2,18.5,4.8,27.3c-1-0.1-2.9-0.7-4.4-0.3
			c-7.6,2.4-12.8,8-17.3,14.1c-3.1,4.1-7.2,8.3-5.9,14.1c1.5,6.8,4.9,13.3,11.7,15.3c7.7,2.3,12.8,1.9,18.2-6.2
			c0.8,1.2,1.7,3.7,2.8,3.8c4.7,0.4,9.6,0.2,14.3,0.2C324.5,223.4,324.9,222.6,324.8,222.5z M302.8,207.6
			C302.8,207.7,302.8,207.7,302.8,207.6C302.8,207.7,302.8,207.7,302.8,207.6c-0.2,4.6-3,9.1-7.9,8.9c-3.5-0.2-7-2.8-7.5-6.3
			c-0.3-2.3,0.4-4.5,1.8-6.3c1.3-2.3,3.4-4,5.5-5.5c2.2-1.5,5.6-0.4,6.8,1.8c0.6,1.1,0.8,2.3,0.6,3.4c0.4,1.1,0.6,2.3,0.6,3.5
			c0,0.1,0,0.1,0,0.2C302.8,207.3,302.8,207.5,302.8,207.6z"/>
		<path class="st3" d="M275.4,181.1c0.3-0.3,0.5-0.7,0.7-1.1c-0.8-0.3-1.5-0.7-2.3-0.9c-0.3-0.1-0.7,0-1.1,0
			c-3.6,0-7.4-0.8-10.7,0.2c-2.2,0.6-3.6,3.7-5.3,5.5c-1.4-2.4-4.5-4.5-7.5-2.4c-5.9,4.1-11.6,8.7-16.5,13.9c-3.5,3.7-7.3,8.2-6,14
			c1.5,6.8,4.9,13.3,11.7,15.3c7.7,2.3,12.7,1.9,18.3-6.3c0.8,1.2,1.6,3.7,2.6,3.8c4.8,0.4,9.6,0.2,14.5,0.2c0.1,0,0.5-0.8,0.4-1
			c-1.7-2.2-4.6-4.1-5.2-6.6c-1.7-7.1-3.4-14.5-3.5-21.8C265.4,188,271.2,184.8,275.4,181.1z M252,212.5c-1.5,1.6-3.8,2.3-5.9,2.2
			c-0.6,0.1-1.2,0.2-1.8,0.1c-1-0.1-2-0.6-2.7-1.3c-2.3-0.9-3.4-3.6-2.9-5.9c0.4-1.9,0.8-3.7,2.2-5.1c0,0,0,0,0,0
			c0.4-0.7,0.8-1.3,1.4-1.9c3-2.9,8-2.8,10.2,1C254.4,204.7,254.6,209.8,252,212.5z"/>
		<path class="st3" d="M381.8,88c-0.3-0.3-1.1,0-1.7,0c-3.6,0-7.4-0.7-10.7,0.3c-2.2,0.6-3.6,3.7-5.2,5.5c-1.4-2.4-4-4.1-7.7-2.5
			c-8.3,3.4-13.8,9.9-18.7,17c-6.2,8.9-2.8,21.6,7.1,26.3c6.3,3,14.1,0.3,18.9-5.8c1.4,1.4,2.8,3.7,4.5,4c3.8,0.6,7.7,0.2,11.6,0.1
			c0.7,0,1.3-0.7,2-1.1c-0.5-0.3-1.1-0.5-1.5-0.9c-0.7-0.5-1.5-1.1-1.8-1.8c-1.8-5.1-4.1-10.1-5-15.3c-1.9-10.3-2.2-14.8,7.8-22.3
			c0.6-0.5,1.5-1,1.7-1.6C383.1,89.4,382.4,88.5,381.8,88z M360.1,118.9c-2,3.4-6.2,5.2-10,5.3c-2.6,0.1-5.2-2.4-5-5
			c0.1-1.9,0.6-3.7,2-5.1c0.4-0.4,0.9-0.7,1.3-1c0-0.7,0.2-1.4,0.6-2c0.5-2.3,2.4-3.9,4.9-4.1c2.1-0.1,4.1,1.5,4.8,3.5
			C361,112.5,361.9,115.8,360.1,118.9z"/>
		<path class="st3" d="M143.9,116.6c-2.2,0.5-4.4,1.3-6.7,1.6c-1.6,0.2-4.8-0.1-4.8-0.4c-1.3-12.2-2.2-24.4-3.3-36.6
			c-0.3-3.3-0.4-7.3-2.2-9.7c-2.3-3.3-6.2-5.5-9.6-7.9c-4.1-2.9-6.9-1.5-8.5,3.1c-1.8,5.1-4,10.2-5.8,15.3c-1.7,4.8-3,9.6-4.5,14.4
			c-1.8-11.2-3.5-22.4-5.4-33.6c-0.4-2.4-0.3-5.2-2.6-6.6c-6,0.3-12.1,0.5-17.9-0.6c-7.9,0.6-15.9,1.1-24.7,1.7
			c-0.2,0.5-0.3,0.9-0.5,1.4c5.2,1.9,9.6,3.4,13.9,5.1c1.7,0.7,4.2,1.6,4.6,2.9c0.8,2.4,0.4,5.2,0.5,7.8c0.1,7.9,0.2,15.7,0.3,23.6
			c0.2,11.7,0.4,23.4,0.6,35.1c0.2,14.1,0.2,28.2,0.3,42.2c0,9.3,0,18.5,0,27.8c0,0.6-0.2,1.3-0.6,1.7c-2.6,3.1-6.1,4-9.7,2.4
			c-5.5-2.4-10.8-5.3-16.2-7.9c-0.4-0.2-0.9-0.1-1.4-0.1c0,0.3-0.2,0.8,0,1c1.9,3.1,3.5,6.3,5.7,9.1c3.2,3.9,6.3,8.4,10.4,11.1
			c8.8,5.8,18.4,2.8,27.7,0.5c0.3-0.1,0.7-0.7,0.7-1c0.3-10.7,0.6-21.5,0.8-32.2c0.2-9.7,0.4-19.4,0.6-29.1
			c0.2-12.8,0.4-25.6,0.5-38.4c0.1-8.3,0-16.6,0-24.4c1.9,6,3.6,12.4,6,18.6c1.2,3-0.1,8.3,5.6,8.1c2.1-0.1,5.6-0.5,6.2-1.8
			c4.7-9.9,8.9-20.1,13.3-30.2c1.2,4.8,1.4,9.4,1.6,13.9c0.1,3.1,0.2,6.2,0.3,9.3c0.1,7.4,0.2,14.8,0.3,22.2c0,1,0.2,2.1,0.7,2.9
			c0.2,0.4,1.7,0.4,2.1,0.1c7.7-6.9,15.3-13.8,22.9-20.8c0.4-0.4,0.4-1.1,0.6-1.6C145.1,116.6,144.5,116.5,143.9,116.6z"/>
		<path class="st3" d="M437.7,63.9c-9.7,9-18.8,17.3-27.8,25.6c-1.4,9.4-2.8,18.5-4,27.7c-1.2,8.5-2.1,17.1-3.1,25.7
			c-1.1,9.2-2.3,18.4-3.3,27.5c-0.5,4.7-0.8,9.5-0.8,14.2c-0.1,6.9-0.6,13.9,0.4,20.6c1.2,7.9,8.5,10.4,15.6,5.9
			c2.8-1.8,5.1-4.4,7.7-6.6c0.2-0.2,0.6-0.1,0.9-0.2c0.1,0.7,0.5,1.8,0.2,2.2c-2.8,2.9-5.5,6-8.6,8.6c-5.2,4.3-10.4,8.6-16,12.4
			c-2.9,2-8.4,0-9.4-3.4c-1.8-6.1-3.8-12.3-4.2-18.6c-0.9-14.6-1.4-29.2-1.1-43.8c0.3-14.7,1.7-29.4,2.7-44.1c0.5-7.5,1.2-15,2-22.5
			c1-9.7,2.2-19.3,3.5-29c0-0.3,1.5-0.7,2.3-0.7c10-0.3,19.9-0.6,29.9-0.9C428.6,64.5,432.9,64.2,437.7,63.9z"/>
		<path class="st4" d="M138.5,203.1c0.3-5.9,0.5-11.7,0.9-17.6c0-0.5,1-1.4,1.4-1.4c6,0.5,12,0.9,18,1.7c6.4,0.8,12.7,2,19,3
			c0.4,0.1,0.9,0.6,0.9,0.9c0,4-0.1,8-0.3,12c0,0.9-0.2,2-0.8,2.7c-5.1,6.1-10.1,12.2-15.6,17.9c-1.7,1.8-4.8,2.7-7.4,3.2
			c-16.3,3.1-28-4-36-17.6c-4.5-7.7-8.3-15.9-11.6-24.2c-1.8-4.6,2.2-8.4,4.7-12.1c6.3-9.6,12.7-19.1,19.2-28.6
			c1.6-2.3,3.6-5.5,5.9-5.9c3.4-0.6,7.2,0.7,10.8,1.4c8.8,1.8,17.6,3.6,26.4,5.8c1.2,0.3,2.5,2.9,2.5,4.5c0,6.2-0.4,12.3-0.8,18.5
			c0,0.2-1.3,0.6-1.7,0.4c-8.3-4.5-16.4-9.3-24.8-13.5c-1.2-0.6-3.9,2-6,3c-10.2,4.8-12.4,14-13.5,23.9c-0.6,5-0.9,10-1.7,15
			c-0.7,4.6,2.9,6.2,5.5,8.1c5,3.5,10.1,6.8,15.5,9.6c4.3,2.2,9.7-0.5,13-5.4c0.9-1.4,2.3-2.5,3.1-3.9c0.5-0.9,0.8-2.3,0.5-3.3
			c-1.5-4.4-8.6-7.4-12.7-5.4C148.1,198.1,143.4,200.6,138.5,203.1z"/>
		<path class="st4" d="M255.1,80.2c0.4-0.3,0.5-0.8,0.8-1.2c-0.5-0.3-1-0.8-1.6-0.8c-2.4-0.1-4.7,0.1-7.1-0.1c-6.9-0.6-7.9,0-10,6.6
			c-4.3-4.7-6.6-5.3-11.8-1.4c-4.3,3.2-8.7,6.7-12,10.9c-7.4,9.7-9.7,12.4-4.2,22c3.3,5.9,7.8,10.6,15.2,9.3c4.1-0.7,8-3,11.8-4.5
			c0.3,1.5,0.8,4.4,1.2,7.3c0.4,2.7,1.8,5.7,1,7.9c-1.7,4.7-9.3,7.6-14.3,6.4c-1.1-0.3-2.3-0.1-3.4,0.2c-0.3,0.1-0.5,1.4-0.3,2.1
			c1,3.6,2,7.2,3.4,10.7c0.7,1.7,1.3,4.9,4.4,3.4c5.9-2.9,11.6-5.9,17.3-9.1c6.6-3.8,10.4-9,8-17.2c-2.6-8.8-5.7-17.6-7.3-26.6
			C243.9,92.5,243.7,89.4,255.1,80.2z M230.6,111.1c-1.2,1.7-2.9,2.7-5,2.4c-1.1-0.1-2.1-0.7-2.9-1.5c-0.6-0.1-1.2-0.3-1.8-0.6
			c-0.6-0.3-1.1-0.8-1.5-1.4c-0.5-0.1-1.1-0.3-1.7-0.4c0.3-0.4,0.6-0.7,0.9-1c-0.3-0.9-0.4-2-0.1-2.8c0.8-2,1.9-3.3,3.3-4.7
			c-0.1-1.3,0.3-2.6,1.4-3.8c1.7-1.9,5.4-2,7.1,0C233.4,101,233.4,107.3,230.6,111.1z"/>
		<path class="st4" d="M324.8,222.5c-2.1-3.1-5.2-6-6.2-9.4c-1.4-5.2-1.5-10.9-1.9-16.3c-0.7-9-2-18-1.5-26.9
			c0.6-9.1,3-18.2,4.7-27.4c-4.2,1.4-8.6,2.6-12.5,4.5c-3.4,1.6-8,3-7.2,8.2c1.4,9.3,3.2,18.5,4.8,27.3c-1-0.1-2.9-0.7-4.4-0.3
			c-7.6,2.4-12.8,8-17.3,14.1c-3.1,4.1-7.2,8.3-5.9,14.1c1.5,6.8,4.9,13.3,11.7,15.3c7.7,2.3,12.8,1.9,18.2-6.2
			c0.8,1.2,1.7,3.7,2.8,3.8c4.7,0.4,9.6,0.2,14.3,0.2C324.5,223.4,324.9,222.6,324.8,222.5z M302.8,207.6
			C302.8,207.7,302.8,207.7,302.8,207.6C302.8,207.7,302.8,207.7,302.8,207.6c-0.2,4.6-3,9.1-7.9,8.9c-3.5-0.2-7-2.8-7.5-6.3
			c-0.3-2.3,0.4-4.5,1.8-6.3c1.3-2.3,3.4-4,5.5-5.5c1.4-1,3.2-0.9,4.7-0.1c0.1-0.1,0.2-0.2,0.3-0.4c0,0.2,0,0.4,0,0.5
			c0.8,0.4,1.4,1,1.8,1.8c0.6,1.1,0.8,2.3,0.6,3.4c0.4,1.1,0.6,2.3,0.6,3.5c0,0.1,0,0.1,0,0.2C302.8,207.3,302.8,207.5,302.8,207.6z
			 M304.9,163.3c0-0.1,0-0.2,0-0.2h4.9c0,0.1,0,0.2,0,0.2H304.9z"/>
		<path class="st4" d="M381.8,88c-0.3-0.3-1.1,0-1.7,0c-3.6,0-7.4-0.7-10.7,0.3c-2.2,0.6-3.6,3.7-5.2,5.5c-1.4-2.4-4-4.1-7.7-2.5
			c-8.3,3.4-13.8,9.9-18.7,17c-6.2,8.9-2.8,21.6,7.1,26.3c6.3,3,14.1,0.3,18.9-5.8c1.4,1.4,2.8,3.7,4.5,4c3.8,0.6,7.7,0.2,11.6,0.1
			c0.7,0,1.3-0.7,2-1.1c-0.5-0.3-1.1-0.5-1.5-0.9c-0.7-0.5-1.5-1.1-1.8-1.8c-1.8-5.1-4.1-10.1-5-15.3c-1.9-10.3-2.2-14.8,7.8-22.3
			c0.6-0.5,1.5-1,1.7-1.6C383.1,89.4,382.4,88.5,381.8,88z M360.1,118.9c-2,3.4-6.2,5.2-10,5.3c-2.6,0.1-5.2-2.4-5-5
			c0.1-1.9,0.6-3.7,2-5.1c0.4-0.4,0.9-0.7,1.3-1c0-0.7,0.2-1.4,0.6-2c0.5-2.3,2.4-3.9,4.9-4.1c0.7,0,1.5,0.1,2.1,0.5
			c0.1-0.1,0.2-0.2,0.3-0.4c0,0.2,0,0.4,0,0.6c1.1,0.6,1.9,1.7,2.3,2.9C361,112.5,361.9,115.8,360.1,118.9z"/>
		<path class="st4" d="M275.4,181.1c0.3-0.3,0.5-0.7,0.7-1.1c-0.8-0.3-1.5-0.7-2.3-0.9c-0.3-0.1-0.7,0-1.1,0
			c-3.6,0-7.4-0.8-10.7,0.2c-2.2,0.6-3.6,3.7-5.3,5.5c-1.4-2.4-4.5-4.5-7.5-2.4c-5.9,4.1-11.6,8.7-16.5,13.9c-3.5,3.7-7.3,8.2-6,14
			c1.5,6.8,4.9,13.3,11.7,15.3c7.7,2.3,12.7,1.9,18.3-6.3c0.8,1.2,1.6,3.7,2.6,3.8c4.8,0.4,9.6,0.2,14.5,0.2c0.1,0,0.5-0.8,0.4-1
			c-1.7-2.2-4.6-4.1-5.2-6.6c-1.7-7.1-3.4-14.5-3.5-21.8C265.4,188,271.2,184.8,275.4,181.1z M252,212.5c-1.5,1.6-3.8,2.3-5.9,2.2
			c-0.6,0.1-1.2,0.2-1.8,0.1c-1-0.1-2-0.6-2.7-1.3c-1.2-0.5-2.1-1.4-2.5-2.5c-0.5-0.1-1-0.1-1.5-0.2c0.4-0.4,0.7-0.8,1.1-1.2
			c-0.1-0.7-0.1-1.3,0-2c0.4-1.9,0.8-3.7,2.2-5.1c0,0,0,0,0,0c0.4-0.7,0.8-1.3,1.4-1.9c1.7-1.7,4-2.3,6.1-1.9
			c0.2-0.3,0.5-0.5,0.7-0.8c0,0.3,0,0.6,0,1c1.3,0.4,2.5,1.3,3.4,2.7C254.4,204.7,254.6,209.8,252,212.5z"/>
		<path class="st4" d="M201.9,88c-0.3-0.3-1.1,0-1.7,0c-3.6,0-7.4-0.7-10.7,0.3c-2.2,0.6-3.6,3.7-5.2,5.5c-1.4-2.4-4-4.1-7.7-2.6
			c-8.4,3.4-14.1,10-18.9,17.3c-6,9-2.9,21,7,25.7c6.1,2.9,14.9,2.2,19.2-5.6c1.3,1.3,2.5,3.8,4.1,4c4,0.6,8.1,0.2,12.2,0.2
			c0.6,0,1.2-0.7,1.7-1.1c-0.5-0.3-1-0.5-1.4-0.8c-0.7-0.5-1.6-1-1.9-1.7c-1.8-5.1-4.1-10.1-5.1-15.4c-1.9-10.1-2.3-14.8,7.8-22.3
			c0.6-0.5,1.5-1,1.7-1.6C203.1,89.4,202.5,88.5,201.9,88z M175.4,122.8c-1,0-1.8-0.2-2.5-0.6c-0.3,0.2-0.6,0.3-0.9,0.4
			c-1.1,0.3-2.3,0.2-3.3-0.3c-1-0.4-1.8-1.1-2.4-2c-0.1-0.1-0.1-0.2-0.2-0.3c-0.4-0.1-0.7-0.1-1.1-0.2c0.2-0.3,0.5-0.5,0.7-0.8
			c-0.2-0.9-0.3-1.9,0-2.6c0.2-0.4,0.3-0.8,0.5-1.2c0,0,0,0,0,0c0,0,0,0,0,0c0.4-0.8,0.9-1.6,1.6-2.2c0.1-0.1,0.1-0.1,0.2-0.2
			c0.1-0.2,0.2-0.3,0.4-0.5c0,0,0,0,0,0c-0.1,0.1-0.1,0.2-0.2,0.2c-0.2,0.2-0.3,0.4,0,0c0.1-0.1,0.1-0.2,0.2-0.3
			c0.1-0.2,0.2-0.4,0.3-0.7c0.4-0.8,1-1.5,1.6-2.2c1.3-1.4,3.3-1.7,5-1.2c0.3-0.4,0.7-0.8,1-1.1c0,0.6,0.1,1.1,0.1,1.7
			c0.1,0.1,0.3,0.2,0.4,0.3c1.6,1.3,2.2,3.2,1.8,5.1C181.5,116.8,180.4,122.8,175.4,122.8z"/>
		<path class="st4" d="M362.8,204.5c-0.8,0.2-1.7,0.2-2.3,0.6c-0.9,0.5-1.6,1.3-2.3,2c-6,5.9-7.9,6.4-13.9,2.2
			c-3.3-2.3-8.2-4.4-5.5-10.4c0.5,0.4,1,0.7,1.5,1c3.2,1.4,7.1,4.5,9.5,3.6c5.6-2,10-6.3,10.5-13.1c0.4-5.8,1-11.6,1-17.5
			c0-1.2-2.1-3.1-3.4-3.3c-2.6-0.4-5.3,0.4-8,0.4c-5.1-0.1-9.6,1.9-12.1,6c-4.8,7.8-8.9,16.1-13.1,24.3c-0.6,1.2-0.3,3.7,0.6,4.7
			c4.3,4.8,8.8,9.3,13.4,13.8c4,4,8.7,6.7,14.5,5.9c2.3-0.3,5.9,1.4,6.8-2.7c1.1-5,2.1-10.1,3.1-15.1
			C363.2,206.1,362.9,205.3,362.8,204.5z M341.5,187.4c0.4-2.2,1.6-4.2,3.6-5.2c0.8-0.4,1.6-0.7,2.5-0.9c0.6-0.1,1.2-0.2,1.8-0.2
			c-1.8,0.2-0.4,0,0,0c0.4-0.1,0.8-0.1,1.2-0.1c1.1-0.1,2.2,0.1,3.2,0.6c1.1,0.6,2,1.8,2.3,3.1c1,1.3,1.4,3,0.9,4.4
			c-0.8,2.4-2.9,3.8-5.3,3.8c-1.6,0.8-3.5,0.9-5.3,0.9C342.8,193.8,340.9,190.6,341.5,187.4z"/>
		<path class="st5" d="M327.8,89c-0.5,3.9-1,7.9-1.7,11.8c-0.1,0.6-0.9,1.4-1.4,1.4c-0.7-0.1-1.4-0.7-1.9-1.2
			c-1.8-2.2-3.3-4.6-5.2-6.7c-2.7-2.9-4,0.1-4.9,1.8c-3.1,5.4-6.1,10.8-8.7,16.4c-0.4,0.8,1,2.8,2.1,3.8c1.9,1.8,4.1,3.2,6.1,4.8
			c4.5,3.6,7.3-0.1,10.4-2.4c1.5-1.1,2.9-2.4,4.4-3.5c0.4-0.3,1.4-0.5,1.7-0.2c0.4,0.3,0.6,1.2,0.5,1.8c-1.2,6.2-2.5,12.4-3.9,18.5
			c-0.1,0.6-1,1.3-1.5,1.4c-6.3,0.3-12.7,1.3-17.7-4.6c-3.8-4.5-8.7-8.1-12.9-12.3c-3.6-3.5-4.1-7.4-1.4-12c4-6.9,7.4-14.2,11.6-21
			c2.6-4.3,7-6.4,12.3-6.3c2.4,0,4.8-0.4,7.2-0.5c2.9-0.2,4.6,1.1,4.3,4.2c-0.1,1.6,0,3.3,0,4.9C327.5,89,327.7,89,327.8,89z"/>
		<path class="st4" d="M200.3,185c1.5-1.3,4.1-2.9,5.9-5.2c3.6-4.6,7.6-4.9,12.3-2c2.2,1.3,4.5,2.4,6.7,3.8
			c4.6,2.8,1.9,7.2,2.3,10.9c0.1,1,0.1,2.1-0.3,3c-0.6,1.4-1.5,2.7-2.3,4c-1.3-1.1-2.6-2.3-3.9-3.4c-3-2.5-5.9-5.2-9.1-7.3
			c-0.5-0.3-2.8,1.7-4,2.9c-3.1,2.9-3.7,6.6-3.6,10.7c0.1,6.3-0.3,12.5-0.8,18.8c-0.4,4.2-4.3,3.6-7.1,4.1c-2.5,0.4-5.1,0.3-7.7,0.3
			c-0.6,0-1.1-0.5-1.7-0.8c0.4-0.3,0.9-0.6,1.1-1c1.4-2.8,3.8-5.5,4-8.4c0.6-7.3,1.2-14.9,0-22.1c-0.5-3.2-5.2-5.7-8.1-8.4
			c-0.9-0.9-2-1.6-3-2.4c0.2-0.3,0.5-0.8,0.7-0.8c4.6-0.5,9.3-1.5,13.8-1.2C197.4,180.6,199,183.8,200.3,185z"/>
		<path class="st5" d="M260.3,89.9c2.1-0.2,4.1-0.5,6-0.5c4,0.1,7.9,0.2,11.8,0.8c0.5,0.1,0.7,3.3,0.7,5.1c0,9.1-1.1,18.3,0,27.3
			c0.7,5.8,3.6-0.2,5.5-0.5c1.1-0.2,1.9-1.8,2.9-2.7c0.3-0.3,0.7-0.4,1.1-0.6c0.1,0.4,0.3,0.7,0.3,1.1c0.1,5.3-6.8,13.3-13.7,15.2
			c-3.3,0.9-7,0.6-10.5,0.3c-1-0.1-2.5-2.2-2.6-3.4c-0.3-9.1-0.2-18.3-0.5-27.5c-0.1-4.8-0.7-9.5-1-14.2
			C260.2,90,260.3,89.8,260.3,89.9z"/>
		<ellipse class="st6" cx="307.3" cy="163.2" rx="3.5" ry="0.2"/>
	</g>
</g>
<g id="Layer_1">
	<g id="Folder2_xA0_Image_00000004545604297942646400000017451755382538447241_">
		<g>
			<path class="st7" d="M15.9,10.9"/>
			<path class="st8" d="M307.1,43.9c-0.1,1.1-0.2,2.1-0.4,3.2c-0.8,5-2.7,9.9-5.8,13.9c-4.8,6.2-11.9,10.3-19.2,13.3
				c-1.3,0.5-2.6,1-4,1c-1.6,0-4.2-1.1-4.9,0.8c-0.8,2.1-1.1,4.5-1.6,6.7c-0.1,0.5-0.3,1.1-0.4,1.6c-0.7-0.4-1.9-0.6-2-1.1
				c-0.8-2.7-1.7-5.2-1.5-8c0.2-2.8-1.2-5.5-2.1-8c-0.9-2.4-1.4-4.9-2-7.5c-0.7-2.8-1.1-5.7-0.6-8.5c1.3-7.7,7.7-14.3,13-19.5
				c6.7-6.7,13.5-13.3,20.2-20c0.2-0.2,0.5-0.4,0.8-0.6c0,0,4.5,8.2,4.9,9c1.5,3.1,2.8,6.2,3.8,9.5C306.6,34.2,307.4,39,307.1,43.9z
				 M277.5,48.7c4.2-5.1,7.7-10.4,5.7-17.5c0.2-0.3,0.5-0.7,0.8-1.1c0.8,2.1,1.4,3.9,2.2,6c0.6-1,1-1.6,1.4-2.3
				c2.5-3.4,5-6.8,7.6-10.1c0.5-0.7,1.1-1.3,1.7-2c-0.2,0.9-0.2,2-0.7,2.8c-2.5,4.2-5,8.3-7.6,12.6c1.6,0.4,3.1,0.6,4.6,1
				c0.6,0.2,1.1,0.5,1.7,0.8c-0.6,0.3-1.2,0.8-1.8,0.8c-2.1,0.2-5.4-0.6-6.3,0.6c-3.4,4.3-6.1,9.1-9.4,14.2c4-0.3,7.4-0.4,10.6-1
				c1.3-0.2,2.4-1.8,3.5-2.7c-0.3,1.3-0.2,3-1,3.7c-1.1,0.9-2.8,1.1-4.3,1.6c-2.1,0.2-4.2,0.9-6.2,0.6c-2.8-0.5-4.3,0.4-5.1,3
				c-0.7,2.2-1.5,4.3-2.3,6.4c0.6,0.9,1.2,2.4,1.9,2.5c2.1,0.2,4.7,0.4,6.2-0.6c5.4-3.7,11-7.4,15.5-12.1c7.2-7.7,8.5-17.3,5.4-27.4
				c-1.4-4.1-2.7-8.3-4.1-12.5c-0.2-0.9-0.5-1.8-0.8-2.9c-0.8,1.1-1.3,2.1-2,2.8c-6.5,6.7-13.2,13.3-19.7,20.1
				c-4.6,4.9-9,10-10.2,16.9c-0.1,0.4-0.2,0.9-0.2,1.3c-0.4,3.9,0,7.7,3.2,10.4c0.4,0.3,2.2-0.2,2.5-0.7c1-1.7,1.5-3.7,2.2-5.5
				c0.5-1.4,1.6-2.7,1.5-4.1c0-4.6-0.4-9.2-0.7-13.8c0.1,0,0.1-0.1,0.2-0.1c0.1,0,0.2,0,0.3,0.1c0.7,3.6,1.3,7.2,2.1,11.7
				C276.7,50.5,277.1,49.6,277.5,48.7z"/>
			<path class="st8" d="M450.6,166.9c0.4,5.2,0.2,10.4-1.4,15.3c-1.8,5.7-5.7,10.9-11.2,13.3c-2.5,1.1-4.8,1.9-6.5,4
				c-2.1,2.6-4,5.3-6.6,7.5c-1.3,1.1-3.1,1.5-4.5,2.1c2-3,4.1-6,6.1-9.1c1.5-2.4,1.7-3.9-1.2-6.2c-2.6-2-3.6-6.1-5.2-9.3
				c-0.7-1.5-0.9-3.2-1.3-4.9c-0.1-0.4-0.1-0.8-0.2-1.2c0-0.2,0-0.5,0-0.7c-0.1-0.5-0.2-0.9-0.2-1.4c0-0.2,0-0.3,0-0.5
				c0-0.8-0.1-1.6-0.1-2.4c0-0.5,0-1,0-1.5c0-0.4,0.1-0.8,0.2-1.2c0-0.3,0.1-0.6,0.1-0.9c0-0.3,0.1-0.7,0.1-1c0-0.2,0.1-0.5,0.1-0.7
				c0-0.2,0-0.3,0-0.5c1.5-5.9,4.1-11.4,9.2-14.8c6.2-4.1,14.5-9.5,21.4-12.1c-0.3,1.8-0.1,5.5,0,7.4c0.5,6,0.5,10.4,1.1,16.4
				C450.4,165.3,450.5,166.1,450.6,166.9z M446.2,162.3c-5.1,3.5-6.1,8.8-6.2,14.4c-0.2,0.8-0.4,1.6-0.8,3.1
				c2.7-2.1,4.9-3.8,7.1-5.5c0.2-0.1,0.6,0,0.9,0.1c-2.1,2.3-4.3,4.6-6.3,6.9c-1.1,1.3-2.1,2.6-2.8,4.1c-0.8,1.6-1.4,3.4-1.7,5.2
				c-0.1,0.5,0.8,1.8,1.2,1.8c3.3,0.2,7.5-3.2,8.6-6.6c0.6-1.6,1.8-3.2,1.8-4.8c0.1-12.4,0.1-24.9,0.1-38c-1.5,0.9-2,1.3-2.6,1.6
				c-3.3,2-6.6,4-9.8,6c-8.7,5.8-13,13.9-11.4,24.3c0.7,5,2.5,9.8,4.2,14.6c0.9,2.4,3.8,2.8,5.2,1.1c0.8-2.3,1.6-4.7,2.2-7
				c0.1-0.6-0.2-1.4-0.6-1.9c-1.6-1.7-3.4-3.4-5.1-5c-0.5-0.9-0.9-1.7-1.4-2.6c-0.2-0.4-0.3-0.8-0.5-1.2c0.4,0,0.9,0,1.3,0.1
				c2.3,2.5,4.5,5,7.1,7.9c0.7-4.2,1.1-7.8,1.8-11.4c0.5-2.3,0-3.8-2-5.1c-0.7-0.5-1.3-1.3-1.9-2c-0.3-0.3-0.3-0.8-0.5-1.3
				c0.5,0.1,1,0,1.4,0.2c1.2,0.6,2.4,1.3,3.6,1.9c0.8-4.6,1.6-9.1,2.4-13.5c0.1-0.4,0.5-0.7,0.8-1c0.1,0.4,0.2,0.8,0.2,1.2
				c-0.3,3.8-0.6,7.7-0.9,11.5c-0.1,0.8-0.2,1.5-0.4,2.5c1.8-1,3.2-1.8,4.8-2.7C446.1,161.7,446.1,162,446.2,162.3z"/>
			<path class="st8" d="M48.3,171.4c-1.5,6.4-5,12.4-9.6,17c-0.4,0.4-0.9,0.9-1.1,1.4c-0.5,1.2,0.1,2.6,0.8,3.8c2,3.7,4,7.5,6,11.2
				c-2.9-2-5.5-4.4-7.8-7.1c-1.2-1.4-2.2-2.8-3.2-4.3c-0.5-0.8-1.5-3.7-2.3-4c-2-0.9-4-1.8-6-2.8c-0.2-0.1-0.3-0.2-0.5-0.3
				c-0.1-0.1-0.3-0.1-0.5-0.2c-7.5-5.6-8.6-13.5-7.4-21.8c1.4-10.2,3.5-20.4,5.3-30.6c9.1,4.2,18.1,8.8,23.5,17.9
				C49.3,157.8,49.9,164.8,48.3,171.4z M22.5,154.2c0-0.4,0.1-0.8,0.1-1.2c1.5,1.1,2.8,2,4.3,3.1c0-1,0-1.8,0-2.6
				c0.1-3.3,0.2-6.5,0.3-9.8c0-0.9,0.2-1.9,0.2-2.9c0.3,1.1,0.8,2.1,0.9,3.2c0.3,3.8,0.5,7.7,0.7,11.6c0.4-0.1,0.6-0.2,0.9-0.3
				c1.5-0.5,3-0.9,4.5-1.4c-1.1,1.2-2.3,2.4-3.4,3.6c-0.6,0.6-1.7,1-1.8,1.6c-0.2,2,0,4,0.1,6c0.2,2.6,0.4,5.1,0.6,8.1
				c2.8-2.4,5.1-4.5,7.5-6.6c0.5-0.2,1-0.3,1.5-0.5c-0.2,0.5-0.3,1-0.6,1.4c-0.5,0.8-1.1,1.6-1.7,2.4c-1.2,1.1-2.2,2.7-3.6,3.2
				c-3.2,1.2-3.1,3.4-2.4,6c0.4,1.5,1.1,2.9,1.6,4.4c0.4,0.4,1.1,1.1,1.2,1c1.7-1,4-1.8,4.9-3.4c3.4-6.2,5.6-12.8,5.1-20
				c-0.5-7.3-3.8-13.1-9.6-17.6c-3.1-2.4-6.2-4.8-9.4-7.2c-0.5-0.4-1.1-0.8-1.1-0.9c-1.5,8.3-3.1,16.7-4.4,25.1
				c-0.9,5.9-1.6,11.8,1,17.5c1.1,1.6,1.9,3.7,3.4,4.9c1.4,1.1,3.6,1.3,5.4,1.9c-0.1-1.3-0.2-2.6-0.3-3.9c0-0.2,0-0.5-0.1-0.7
				c-0.8-2.3-0.2-4.9-2.7-6.9c-2.4-1.9-3.9-4.9-5.9-7.4c0.3,0,0.7-0.2,0.9-0.1c2.1,1.9,4.1,3.9,6.6,6.3c-0.2-1.5-0.4-2.4-0.5-3.2
				C27.5,163.5,27.5,158.1,22.5,154.2z"/>
			<path class="st9" d="M418.1,173.4c0,0.8,0.1,1.6,0.1,2.4C418.2,175,418.1,174.2,418.1,173.4z"/>
			<path class="st9" d="M448.8,147c0-0.6,0-1.3-0.1-1.9C448.8,145.7,448.8,146.4,448.8,147z"/>
			<path class="st9" d="M449,150.3c0-0.6-0.1-1.1-0.1-1.7C449,149.2,449,149.8,449,150.3z"/>
			<path class="st9" d="M449.5,155.9c0-0.5-0.1-1-0.1-1.5C449.4,154.9,449.5,155.4,449.5,155.9z"/>
			<path class="st9" d="M418.3,176.3c0.1,0.5,0.2,0.9,0.2,1.4C418.4,177.2,418.4,176.7,418.3,176.3z"/>
			<path class="st9" d="M418.2,170.7c0,0.4-0.1,0.8-0.2,1.2C418.1,171.5,418.2,171.1,418.2,170.7z"/>
			<path class="st9" d="M263,49.4c-0.1,0.5-0.2,1-0.4,1.4C262.7,50.4,262.8,49.9,263,49.4z"/>
			<path class="st9" d="M418.6,178.4c0.1,0.4,0.1,0.8,0.2,1.2C418.7,179.2,418.6,178.8,418.6,178.4z"/>
			<path class="st9" d="M449.3,153.5c0-0.4,0-0.8-0.1-1.2C449.2,152.6,449.3,153.1,449.3,153.5z"/>
			<path class="st9" d="M262.3,52.3c0,0.3-0.1,0.7-0.1,1C262.2,52.9,262.3,52.6,262.3,52.3z"/>
			<path class="st9" d="M418.5,168.8c0,0.3-0.1,0.7-0.1,1C418.4,169.4,418.4,169.1,418.5,168.8z"/>
			<path class="st9" d="M450.5,165.2c-0.1-0.3-0.1-0.6-0.2-1C450.4,164.6,450.4,164.9,450.5,165.2z"/>
			<path class="st9" d="M450.3,180.1c0-0.3,0.1-0.6,0.1-1C450.4,179.5,450.4,179.8,450.3,180.1z"/>
			<path class="st9" d="M305.2,53.3c0.1-0.3,0.2-0.7,0.3-1C305.4,52.6,305.3,52.9,305.2,53.3z"/>
			<path class="st9" d="M306.9,46.1c0.1-0.2,0.1-0.5,0.2-0.7C307,45.6,307,45.9,306.9,46.1z"/>
			<path class="st9" d="M449.8,158.3c0-0.2,0-0.5-0.1-0.7C449.7,157.8,449.7,158,449.8,158.3z"/>
			<path class="st9" d="M306.2,49.7c0.1-0.2,0.1-0.5,0.2-0.7C306.3,49.2,306.2,49.4,306.2,49.7z"/>
			<path class="st9" d="M306.7,47.3c0.1-0.2,0.1-0.5,0.2-0.7C306.8,46.8,306.7,47,306.7,47.3z"/>
			<path class="st9" d="M306.4,48.5c0.1-0.2,0.1-0.5,0.2-0.7C306.5,48,306.5,48.2,306.4,48.5z"/>
			<path class="st9" d="M418.6,167.6c0,0.2,0,0.3,0,0.5C418.6,167.9,418.6,167.8,418.6,167.6z"/>
			<path class="st9" d="M262.5,51.3c0,0.2-0.1,0.3-0.1,0.5C262.4,51.6,262.5,51.5,262.5,51.3z"/>
			<path class="st9" d="M307.2,43.9c0-0.2,0-0.3,0-0.5C307.2,43.6,307.2,43.7,307.2,43.9z"/>
			<path class="st9" d="M307.1,44.9c0-0.2,0-0.3-0.1-0.5C307.1,44.5,307.1,44.7,307.1,44.9z"/>
			<path class="st9" d="M306,50.7c0-0.2,0.1-0.3,0.1-0.5C306,50.3,306,50.5,306,50.7z"/>
			<path class="st9" d="M305.7,51.8c0-0.2,0.1-0.3,0.1-0.5C305.8,51.5,305.7,51.7,305.7,51.8z"/>
			<path class="st10" d="M307.1,44.3C307,44.3,307,44.3,307.1,44.3C307,44.2,307,44.2,307.1,44.3C307.1,44.2,307.1,44.3,307.1,44.3z
				"/>
			<path class="st8" d="M419.7,209.3c0.1-0.1,0.2-0.1,0.3-0.1c0,0.1-0.1,0.2-0.1,0.3C419.9,209.4,419.8,209.4,419.7,209.3z"/>
			<path class="st8" d="M419.5,209.6c0.1-0.1,0.1-0.2,0.2-0.3c0.1,0.1,0.1,0.1,0.2,0.2c-0.1,0.1-0.2,0.1-0.3,0.2
				C419.6,209.6,419.6,209.6,419.5,209.6z"/>
			<path class="st8" d="M419.6,209.7c-0.1,0-0.2,0.1-0.3,0.1c0-0.1,0.1-0.1,0.1-0.2C419.6,209.6,419.6,209.6,419.6,209.7z"/>
			<path class="st11" d="M291.5,50.9c-1.2,1-2.2,2.5-3.5,2.7c-3.3,0.6-6.7,0.7-10.6,1c3.3-5.1,6-10,9.4-14.2
				c0.9-1.1,4.1-0.4,6.3-0.6c0.6-0.1,1.2-0.5,1.8-0.8c-0.6-0.3-1.1-0.7-1.7-0.8c-1.5-0.4-2.9-0.7-4.6-1c2.6-4.3,5.2-8.4,7.6-12.6
				c0.5-0.8,0.5-1.9,0.7-2.8c-0.6,0.7-1.2,1.3-1.7,2c-2.5,3.4-5,6.7-7.6,10.1c0-0.4-0.1-0.9-0.2-1.3c-0.3-1.6-1.3-3.9-0.6-4.7
				c3.3-4.1,7-7.9,10.6-11.7c1.4,4.1,2.7,8.3,4.1,12.5c-0.1,0.1-0.3,0.2-0.3,0.4c-1,3.7-1.6,7.5-3.1,11
				C296.3,43.8,293.7,47.2,291.5,50.9z"/>
			<path class="st12" d="M291.5,50.9c2.2-3.6,4.9-7.1,6.6-11c1.5-3.4,2.1-7.3,3.1-11c0-0.1,0.2-0.3,0.3-0.4
				c3.1,10.1,1.8,19.6-5.4,27.4c-4.4,4.8-10.1,8.4-15.5,12.1c-1.5,1-4.1,0.8-6.2,0.6c-0.7-0.1-1.2-1.6-1.9-2.5
				c1.2-0.7,2.6-1.3,3.7-2.1c3.4-2.6,6.6-5.3,10-7.9c1.5-0.5,3.2-0.7,4.3-1.6C291.2,53.9,291.1,52.1,291.5,50.9z"/>
			<path class="st10" d="M297.4,16.1c-3.6,3.9-7.3,7.6-10.6,11.7c-0.7,0.9,0.4,3.1,0.6,4.7c0.1,0.4,0.1,0.9,0.2,1.3
				c-0.4,0.7-0.8,1.3-1.4,2.3c-0.8-2.1-1.4-4-2.2-6c-0.3,0.4-0.6,0.8-0.8,1.1c-1,0.8-2.1,1.5-2.9,2.3c-1.7,1.7-4.5,3.5-4.6,5.4
				c-0.3,3.2,1.1,6.5,1.9,9.8c-0.4,0.9-0.8,1.8-1.6,3.6c-0.8-4.5-1.5-8.1-2.1-11.7c0-0.1-0.1-0.2-0.1-0.3c-0.1,0.1-0.1,0.2-0.2,0.2
				c-0.1,0-0.1,0.1-0.2,0.1c-0.3,0.3-0.7,0.6-1,1c-2.5,3.8-5,7.6-7.6,11.4c1.2-7,5.6-12.1,10.2-16.9c6.5-6.8,13.1-13.4,19.7-20.1
				c0.7-0.7,1.2-1.7,2-2.8C296.9,14.3,297.1,15.2,297.4,16.1z"/>
			<path class="st11" d="M264.7,53c2.5-3.8,5-7.6,7.6-11.4c0.2-0.4,0.7-0.7,1-1c0.3,4.6,0.6,9.2,0.7,13.8c0,1.4-1,2.7-1.5,4.1
				c-0.7,1.8-1.2,3.8-2.2,5.5c-0.3,0.6-2.1,1.1-2.5,0.7c-3.3-2.7-3.6-6.5-3.2-10.4C264.5,53.8,264.6,53.4,264.7,53z"/>
			<path class="st11" d="M277.5,48.7c-0.7-3.3-2.1-6.6-1.9-9.8c0.2-1.9,2.9-3.7,4.6-5.4c0.9-0.9,2-1.6,2.9-2.3
				C285.1,38.3,281.6,43.6,277.5,48.7z"/>
			<path class="st11" d="M286.2,56.1c-3.3,2.7-6.6,5.3-10,7.9c-1.1,0.8-2.4,1.4-3.7,2.1c0.8-2.1,1.6-4.3,2.3-6.4
				c0.8-2.6,2.3-3.5,5.1-3C281.9,57.1,284.1,56.4,286.2,56.1z"/>
			<path class="st11" d="M273.4,40.5c0.1-0.1,0.1-0.2,0.2-0.2c0,0.1,0.1,0.2,0.1,0.3C273.6,40.5,273.5,40.5,273.4,40.5z"/>
			<path class="st11" d="M441.7,161.4c0.3-3.8,0.6-7.7,0.9-11.5c0-0.4-0.1-0.8-0.2-1.2c-0.3,0.3-0.8,0.6-0.8,1
				c-0.8,4.4-1.6,8.9-2.4,13.5c-1.2-0.6-2.4-1.3-3.6-1.9c-0.4-0.2-0.9-0.1-1.4-0.2c0.2,0.4,0.2,0.9,0.5,1.3c0.6,0.7,1.1,1.5,1.9,2
				c1.9,1.3,2.4,2.8,2,5.1c-0.8,3.6-1.2,7.2-1.8,11.4c-2.6-2.9-4.9-5.4-7.1-7.9c0.4-3.5,0.5-7.1,1.4-10.4c1.1-4.1,3-7.9,4.6-11.9
				c3.3-2,6.6-4,9.8-6c-0.1,2.8-0.6,5.7-0.1,8.4C446.1,156.9,445.3,159.7,441.7,161.4z"/>
			<path class="st12" d="M435.6,150.6c-1.6,3.9-3.5,7.8-4.6,11.9c-0.9,3.3-1,6.9-1.4,10.4c-0.4,0-0.9,0-1.3-0.1
				c0.2,0.4,0.3,0.8,0.5,1.2c0.4,0.9,0.9,1.8,1.4,2.6c0.2,1.8,0.3,3.7,0.8,5.4c0.8,2.9,1.9,5.7,2.8,8.5c-1.4,1.6-4.4,1.3-5.2-1.1
				c-1.7-4.8-3.5-9.6-4.2-14.6C422.7,164.5,426.9,156.4,435.6,150.6z"/>
			<path class="st10" d="M441.7,161.4c3.6-1.8,4.4-4.5,3.7-8.4c-0.5-2.7,0-5.6,0.1-8.4c0.6-0.4,1.1-0.7,2.6-1.6
				c0,13.1,0.1,25.6-0.1,38c0,1.6-1.2,3.2-1.8,4.8c0-0.4-0.1-0.9-0.1-1.3c0.4-3.4,0.8-6.7,1.1-10.1c-0.3,0-0.8-0.2-0.9-0.1
				c-2.2,1.7-4.4,3.4-7.1,5.5c0.4-1.5,0.6-2.3,0.8-3.1c1.9-1.4,3.8-2.8,5.7-4.2c0.6-0.4,1.4-1.1,1.4-1.6c-0.2-2.9-0.6-5.7-0.9-8.6
				c0-0.3,0-0.6-0.1-1.1c-1.5,0.9-3,1.7-4.8,2.7C441.5,162.9,441.6,162.2,441.7,161.4z"/>
			<path class="st11" d="M447.2,174.5c-0.4,3.4-0.8,6.7-1.1,10.1c0,0.4,0.1,0.9,0.1,1.3c-1.1,3.4-5.3,6.8-8.6,6.6
				c-0.5,0-1.3-1.3-1.2-1.8c0.4-1.8,0.9-3.6,1.7-5.2c0.7-1.5,1.8-2.9,2.8-4.1C443,179,445.1,176.8,447.2,174.5z"/>
			<path class="st11" d="M446.2,162.3c0.3,2.9,0.7,5.7,0.9,8.6c0,0.5-0.8,1.2-1.4,1.6c-1.9,1.4-3.8,2.8-5.7,4.2
				C440.1,171.1,441.1,165.9,446.2,162.3z"/>
			<path class="st11" d="M433.7,190.6c-1-2.8-2-5.6-2.8-8.5c-0.5-1.7-0.5-3.6-0.8-5.4c1.7,1.7,3.5,3.3,5.1,5
				c0.4,0.4,0.8,1.3,0.6,1.9C435.2,186,434.4,188.3,433.7,190.6z"/>
			<path class="st11" d="M37.7,166.7c-2.4,2.1-4.8,4.2-7.5,6.6c-0.2-3-0.5-5.6-0.6-8.1c-0.1-2-0.3-4-0.1-6c0-0.6,1.2-1,1.8-1.6
				c1.2-1.2,2.3-2.4,3.4-3.6c-1.5,0.4-3,0.9-4.5,1.4c-0.2,0.1-0.4,0.2-0.9,0.3c-0.2-4-0.4-7.8-0.7-11.6c-0.1-1.1-0.6-2.1-0.9-3.2
				c-0.1,0.9-0.2,1.9-0.2,2.9c-0.1,3.3-0.2,6.5-0.3,9.8c-1.5-1.8-4.2-2.4-3.3-5.9c0.9-3.6,0.9-7.4,1.2-11.1c3.1,2.4,6.2,4.8,9.4,7.2
				c0.7,1.6,1.9,3.1,2.1,4.7C37,154.4,37.3,160.6,37.7,166.7z"/>
			<path class="st12" d="M37.7,166.7c-0.4-6.1-0.7-12.2-1.3-18.3c-0.2-1.6-1.4-3.1-2.1-4.7c5.8,4.4,9.1,10.3,9.6,17.6
				c0.5,7.2-1.7,13.8-5.1,20c-0.9,1.6-3.2,2.3-4.9,3.4c-0.2,0.1-0.8-0.7-1.2-1c0.2-0.5,0.4-0.9,0.6-1.4c1.3-4,2.5-8.1,3.8-12.1
				c0.6-0.8,1.2-1.6,1.7-2.4c0.3-0.4,0.4-0.9,0.6-1.4C38.7,166.4,38.2,166.5,37.7,166.7z"/>
			<path class="st10" d="M24.9,136.5c-0.4,3.7-0.3,7.5-1.2,11.1c-0.9,3.5,1.8,4.2,3.3,5.9c0,0.8,0,1.6,0,2.6c-1.5-1.1-2.8-2-4.3-3.1
				c0,0.5-0.1,0.8-0.1,1.2c-2.6,6.5-1.1,11.4,4.7,14.9c0.1,0.8,0.3,1.6,0.5,3.2c-2.5-2.4-4.6-4.4-6.6-6.3c-0.1-0.1-0.6,0.1-0.9,0.1
				c0,1-0.1,2-0.1,3c0,3.1,0.1,6.1,0.2,9.2c-2.6-5.7-1.9-11.6-1-17.5c1.3-8.4,2.9-16.8,4.4-25.1C23.9,135.6,24.4,136.1,24.9,136.5z"
				/>
			<path class="st11" d="M20.4,178.2c-0.1-3.1-0.2-6.1-0.2-9.2c0-1,0.1-2,0.1-3c1.9,2.5,3.5,5.5,5.9,7.4c2.5,2,1.9,4.6,2.7,6.9
				c0.1,0.2,0.1,0.5,0.1,0.7c0.1,1.3,0.2,2.6,0.3,3.9c-1.8-0.6-4-0.8-5.4-1.9C22.2,181.9,21.5,179.9,20.4,178.2z"/>
			<path class="st11" d="M27.3,169.1c-5.8-3.4-7.3-8.4-4.7-14.9C27.5,158.1,27.5,163.5,27.3,169.1z"/>
			<path class="st11" d="M36.9,170c-1.2,4-2.5,8.1-3.8,12.1c-0.2,0.5-0.4,1-0.6,1.4c-0.5-1.4-1.2-2.9-1.6-4.4
				c-0.8-2.6-0.8-4.7,2.4-6C34.8,172.7,35.7,171.1,36.9,170z"/>
		</g>
	</g>
	<g id="Layer6_xA0_Image_00000017492081072906311120000010042162090112276628_" class="st0">
		<g class="st2">
			<path class="st13" d="M119.7,137.7c0.4-9.7,0.9-19.4,0.9-29.2c0-1.4,0.1-2.9,0.1-4.3c0-0.8,0-1.6-0.3-2.4
				c-0.1-0.3-0.1-0.6-0.1-0.8c0.3-1.5,0.5-3,0.7-4.6l0,0c0.2-1,0.3-2,0.5-3c0.1-0.4,0.2-1-0.2-1.3c-0.5-0.4-0.8,0.2-1.2,0.4
				c-0.2,0.1-0.4,0.4-0.6,0.5c-3.7,10.1-8.1,19.9-13.5,29.2c-0.6,1.1-0.8,2.2-1.1,3.4c-0.6,2.4-2.8,1.8-4.4,2.1c-1.5,0.2-3,0-4.5,0
				c-0.4-0.2-0.9,0-1.3-0.2c-1.8-1.4-2.1-3.6-2.9-5.5c-1.6-4.2-3.3-8.4-5.1-13c0,2.9,0,5.5,0,8.1c-0.1,0.1-0.2,0.2-0.3,0.1
				c-0.6-0.5-1.2-0.9-2-0.4c-0.8,0.4-0.8,1.3-0.8,2c0.1,1.4,0,2.9,0.1,4.3c-0.9,3.5-0.7,7-0.7,10.6c0.1,5.1-0.6,10.1-2.1,15
				c-0.8,2.6-1.5,5.2-2.5,7.7c-0.3,0.8-0.7,1.4-1.7,1.4c-1-0.2-2-0.4-3-0.5c-0.4-0.1-0.8-0.2-1.2-0.4c-0.5-0.5-0.5-1.2-0.6-1.9
				c-0.9-6.3-1.7-12.6-2.4-19c-0.5-4.6-0.4-9.1-0.3-13.7c0.1-2.4,0-4.9,0-7.3c0-1,0.2-1.8,1.4-1.9c0.9-0.1,1.6-1.4,1.4-2.4
				c-0.9-5.5-1.5-11.1-1.9-16.7c-0.2-3.7-0.3-7.5-0.5-11.2c0-0.4,0-0.8-0.1-1.2c-0.2-1.7-0.6-2.1-2.2-2.4c-0.2,0-0.3-0.1-0.4-0.2
				c-0.1-2.3-0.1-4.7-0.2-7c-0.1-1.7-1.7-1.7-2.7-2.1c-4.8-2-9.6-4.3-14.6-5.3c-4-0.8-3-3.3-3.2-5.5c0-0.3,0.6-0.8,0.9-1.1
				c0.6,0,1.1,0,1.7,0c1.4,1.7,3.7,1.1,5.4,2c3.4,1.8,7,1.8,10.7,1.3c7.6-1.1,15.2-0.9,22.9-0.9c2.9,0,4.8,1.3,5.4,4.3
				c1.2,6.3,2.2,12.7,3.2,19.1c0.6,3.7,0.9,7.5,1.7,11.2c0.4,2.1,0.7,4.3,1,6.8c1.1-3.8,1.9-7.2,3-10.6c1.7-5,3.7-9.9,5.5-14.8
				c1.1-3.1,2.2-6.2,4.3-8.8c0.5-0.6,0.8-1.2,1.7-0.8c4.9,1.8,9.7,3.9,13.2,7.9c0.3,0.4,0.6,0.8,0.9,1.2c0.2,0.5,0.4,0.9,0.4,1.5
				c0.1,5.2,0.5,10.3,0.8,15.5c0.4,5.7,0.7,11.4,1.3,17c0.1,0.4,0.2,0.8,0.3,1.1c0,1,0.9,1.2,1.4,1.8c0.3,3.3,0.7,6.7,1,10
				c0.1,0.5,0.2,0.7,0.7,0.7c3.6,0.5,9.7-2.4,11.5-5.5c0.1-0.3,0.2-1.8,0.5-1.7c0.2,0.1,0.4,1.5,0.4,1.7c0.8,2.4,0.7,4.5-1.3,6.4
				c-3.8,3.6-7.5,7.4-11.5,10.9c-1.6,1.4-12.2,12-13.7,7.2c-0.2-0.5-0.1-1.1-0.1-1.7C119.6,139.8,119.7,138.8,119.7,137.7z"/>
			<path class="st13" d="M421.9,207.6c-0.4-0.2-0.4,0.7-0.8,0.9c-0.4,0.1-0.6,0.5-0.9,0.8c-0.2,0.2-0.4,0.3-0.5,0.5
				c-0.3,0.2-0.6,0.5-0.9,0.7c-0.3,0.3-0.7,0.6-1,0.9c-0.8,0.5-1.6,1.1-2.1,1.9c-0.3,0.3-0.6,0.6-1,0.9c-0.6,0.3-1.1,0.8-1.4,1.4
				c-0.5,0.4-1,0.9-1.6,1.3c-0.6,0.2-1.2,0.5-1.5,1.1c-0.2,0.2-0.4,0.4-0.5,0.5c-1,0.2-2,0.2-3,0c-4.8-0.9-7.4-4.3-7.8-10.2
				c-0.9-0.3-1.6-0.6-1.7-1.7c-0.8-4.8-0.5-9.6-0.3-14.4c0.1-4.5,0.3-9.1,0.5-13.6c-0.1-0.8-1.2-1-1.2-1.8c-0.1-0.5-0.1-1-0.1-1.5
				c0.2-2,0.5-4,0.8-5.9c2-14.5,4.6-29,6.7-43.5c1-6.4,2.1-12.8,3-19.3c0.1-0.6,0.3-1.3-0.2-1.8c-0.2-0.2-0.5-0.1-0.8-0.1
				c-1.8,0-0.4-1.8,0.2-2.4c0.9-0.9,1.2-2.2,1.8-3.4c1.2-2.5,3.4-4.3,5.4-6.2c6.5-5.9,12.4-12.6,19.4-18c2-1.5,4.3-3.1,5.4-5.4
				c0.1-0.2,0.2-0.4,0.3-0.7c0.3-1,0.3-5.5-2-4.7c-1,0.3-0.4,2.3-1.2,3c-1.2,0.9-2.5,1.6-3.9,2.2c-3.3,1.2-6.9,1.1-10.3,1.2
				c-8.7,0.3-17.4,0.7-26.2,0.1c0.1,0.3,0.1,0.6,0.1,0.9c1.1,25.5,2.6,51,2.2,76.5c0,2.6-1.6,4.1-3.6,4.6c0.1,1,0.2,2.1,0.3,3.1
				c0.3,5,0.2,10.1,0.2,15.1c0,10.6,0.2,21.3-1,31.9c-0.4,3.4-3.5,5-6.2,4.7c0,0.1,0,0.3,0,0.4c0.2,2.4,0.7,4.9,0.5,7.3
				c-0.1,2,0,4.1,0.2,6.1c0.3,2.1,1,3.8,1.6,5.8c0.6,1.9,2,3.4,3.6,4.4c3.2,2,6.7,1.2,9.8-0.6c7.1-4.2,13.4-9.9,19.7-15.2
				c1.3-1.1,2.9-2.4,3.3-4.1c0.4-1.7,0.1-3.5-0.4-5.1c-0.2-0.7-0.9-0.7-0.9,0.1c-0.1,0.2-0.1,0.3-0.2,0.5"/>
			<path class="st13" d="M148.8,218.4c1.3,0.3,2.6,0.7,3.9,0.9c2,0.4,3.6-0.3,5-1.7c2.8-2.6,5.8-5.1,7.9-8.4
				c0.6-1.1,1.4-0.2,2.2-0.3c-0.6-0.6-0.9-1.2-1.4-1.9c-0.2,0.6,0,1.2-0.4,1.5c-0.4,0.4-0.8,0.7-1.4,0.4c-2-2-3.9-4-5.9-6
				c-0.4-0.4-0.7-0.7-1.3-0.5c-4.4,0.8-8.5,2.5-12.3,4.9c-0.6,0.4-1.2,0.9-2.1,0.7c-2.4-2.8-4.7-5.4-3.7-9.6c0.6-2.4,0.2-5,0.3-7.5
				c0.1-1.3,0.6-2.1,2.1-2.1c3.6,0,7.2,0,10.7,0.5c5,0.8,10,1.8,15,2.7c3.6,0.6,7.1,1.2,10.7,1.5c1.5,0.1,1.2,0.8,1.1,1.7
				c-0.1,3.8-0.3,7.6-0.2,11.3c0.1,2.9-2,4.4-3.5,6.1c-3.9,4.2-7.1,9.1-11.1,13.2c-3.4,3.6-7.6,4.9-12.2,5.1
				c-4.6,0.2-9.4,0.5-13.9-1c-3.6-1.2-6.9-3.1-9.7-5.6c-8-7.2-13.3-16.3-17.7-25.9c-1.5-3.3-3-6.6-3.7-10.1c-0.6-2.8,0.7-5.5,2.4-8
				c4.7-6.9,9.1-14.1,13.8-21c3.7-5.5,7.5-11,11.7-16.2c1.9-2.2,3.5-1.2,5.1-1.1c3.4,0.2,6.8,0.9,10.1,1.6c7.8,1.6,15.5,3.4,23.3,5
				c3.1,0.6,3.5,2.8,3.7,5.3c0.4,5.6,1.2,11.2-0.2,16.8c-0.5,1.8-0.9,3.2-3.4,1.4c-7.4-5.2-15.5-9.4-23.7-13.2
				c-1.3-0.6-2.6,0.9-3.7,1.6c-2.9,1.8-5.9,3.4-8.4,5.6c-2.6,2.2-4.3,5.2-5.2,8.4c-0.9,3.3-1.6,6.7-2.1,10.1
				c-0.5,3.3-0.8,6.6-1.1,9.9c-0.3,2.8-0.5,5.7-0.7,8.5c-0.1,0.8,0.1,1.4,0.8,1.9c4.3,3.6,8.5,7.3,13.4,10.2
				c0.4,0.2,0.6,0.6,0.9,0.9c0.5,0.3,1.1,0.4,1.4,0.8c0.1,0.1,0.1,0.1,0.1,0.2c0.9,1.1,2.4,1.2,3.3,2.1c0.1,0.1,0.2,0.2,0.2,0.2
				c0.1-0.1-0.1-0.2-0.1-0.3C148.6,218.9,148.5,218.6,148.8,218.4z"/>
			<path class="st13" d="M38.7,202.7c0-0.5,0-1,0.2-1.4c0.3-0.7-0.1-2.1,1-2c0.9,0.1,1.6,1.1,1.5,2.2c-0.4,1.3,0.5,2,1.2,2.9
				c0.3,0.4,0.7,0.7,0.9,1.1c0.8,1.4,2,2.6,2.2,4.3c0.1,0.8,1.5,1.1,2.2,0.5c0.3-0.3,0.5-0.4,0.8-0.1c2.4,1,4.8,2.4,7.3,3
				c4,0.9,8.1,1.4,11.4-2.1c0.5-0.5,0.5-0.9,0.5-1.4c0-8.5,0-17.1,0-25.6c0-2.9-0.1-5.7-0.2-8.6c0.5-1.6,0.7-3.2,0.6-4.9
				c-0.1-2.6-0.2-5.3-0.2-8c0-1.7,0-3.3,0-5c0-0.5-0.1-1,0.6-1.1c0.9,0.1,0.8,0.9,0.9,1.5c0.3,2.7,0.6,5.4,1.2,8.1
				c0.3,1.3,0.6,2.6,1.2,3.7c1.3,2.1,2.7,2.2,4.1,0.1c0.2-0.4,0.3-0.7,0.6-1c0.3-0.3,0.4-0.8,0.6-1.2c1-2.4,1.7-4.9,2.5-7.4
				c0.5-1.5,1.7-1.8,2.9-0.9c0.4,0.3,0.4,0.8,0.3,1.2c-0.6,3.1-1,6.3-1.2,9.5c-0.1,1.5-0.2,3-0.3,4.5c-0.4,8.9-0.3,17.9-0.2,26.8
				c0,2.1,0.1,4.1,0.6,6.2c0.2,0.9,0.6,1.6,1.7,1.6c0.5,0,0.8,0.3,0.8,0.8c0.1,5-0.2,10-0.2,14.9c0,0.1-0.1,0.1-0.2,0.1
				c-0.1,0.1-0.3,0.2-0.4,0.3c-1.1,1.4-5.5,1.1-7.1,1.2c-2.7,0.2-5.4,0.3-8.2,0.2c-3.7-0.1-7.4-0.4-11.1-1c-2.4-0.4-4-2.2-5.7-3.8
				c-2.2-2.1-4.1-4.4-6-6.7c-2.9-3.3-5.5-6.7-6.7-11C38.6,203.9,39,203.3,38.7,202.7z"/>
			<path class="st13" d="M291.7,114.2c2.6-4.8,5.1-9.7,7.7-14.5c1.5-2.9,2.7-6.1,4.9-8.5c2.7-2.9,5.6-5.8,10.4-5.7
				c3.3,0,6.8-0.7,10.2-0.7c1.8,0,3.1,1,3.1,3.1c-0.2,5.3,0.5,10.6-0.5,15.8c-0.3,1.5-0.4,3.3-2,3.7c-2,0.5-2.3-1.8-3-3
				c-1.3-2.1-2.9-3.9-4.8-5.5c-1.2-1-2.1-1-3.2,0.7c-2,3-4.6,5.7-6.4,8.9c-1.6,2.9-3.4,5.9-3.5,9.3c-0.1,1.2,1.3,2.8,2.4,3.8
				c2.8,2.5,5.7,4.7,9.2,6.1c1,0.4,1.9-0.4,2.7-1c2.9-2.2,5.8-4.4,8.7-6.7c0.2,0.5,0.3,0.9,0,1.4l0,0c-0.4,5.2-1.2,10.3-1.9,15.4
				c-0.1,0.8,0,1.6,0,2.4c-2.7,1.7-5.7,1.1-8.5,1.1c-6.2,0-10.1-4.3-14.3-8.1c-3.4-3.1-6.6-6.3-9.8-9.6c-0.9-0.9-1.6-2.2-2.3-3.3
				c-0.7-1.6-0.7-3.2-0.5-4.9c0-0.2,0-0.3,0.1-0.5c0.1-0.4,0.2-0.9,0.7-0.8c0.6,0,0.4,0.6,0.5,0.9
				C291.5,114.1,291.5,114.2,291.7,114.2z"/>
			<path class="st13" d="M188.6,228.2c-0.3-0.7-0.7-1.4-1-2.1c-0.3-0.9-0.1-1.7,1-1.4c3,0.9,3.2-1.5,3.7-3.1c0.7-2,0.9-4.2,1.3-6.3
				c0.6-2.9,0.3-5.9,0.5-8.9c0.4-7-2.6-12.1-8.4-15.8c-0.6-0.4-1.3-0.9-2-1.2c-2.8-1.1-2.2-3.5-2.3-5.7c0.2-0.4,0-0.9,0.2-1.3
				c0.3-0.1,0.6-0.1,0.9-0.2c0.4,0.1,0.9,0,1.1,0.6c0.1,0.4,0.2,0.9,0.8,0.9c0.4,0.1,0.9,0.1,1.2,0.4c2.3,2.7,5.3,1.2,7.8,0.8
				c1.9-0.3,3.3,0.2,4.4,1.1c1.5,1.2,2.5,2.9,2.7,5.1c3.1-3.2,6-6.4,9.2-9.3c1.9-1.7,3.8-1.5,5.8-0.6c4.2,1.9,8.6,3.4,11.9,6.9
				c0.1,3.1,0.5,6.2,0.5,9.3c-0.2,1.6-0.5,3.2-0.5,4.8c0,1.5-1.1,1.8-2.1,2.1c-0.9,0.3-1.1-0.5-1.6-1c-3.4-3.7-6.9-7.1-11.2-9.8
				c-0.4-0.3-1.2-0.4-1.9,0.4c-3.9,3.9-6.5,8.1-5.9,14c0.5,4,0,8.2-0.2,12.3c-0.1,2.1-0.3,4.2-0.8,6.3c-0.6,2.7-2.8,3.4-5.2,3.6
				c-2.9,0.2-5.8,0.3-8.6,0.5C189.3,229.9,188.9,229.1,188.6,228.2z"/>
			<path class="st13" d="M278.2,116.4c0.1,3.9-0.2,7.9,1.2,11.7c0.7,1.9,1,2.2,2.6,0.8c2.1-1.8,5.1-2.5,5.9-5.6c0.3-1-0.1-2,0.2-3
				c0.4-0.4-0.5-1.4,0.3-1.3c1,0.1,1.1-0.5,1.5,0.2c0.1,1.1-0.1,4-0.3,5.1c-0.8,5.2-4.1,8.9-7.8,12.2c-3,2.7-6.8,4.2-11,4.3
				c-1.8,0.1-3.6-0.1-5.5-0.2c-2.2-0.2-3.4-1.7-3.4-3.8c-0.1-4.1,0-8.3,0-12.4c0.9-0.8,0.9-1.9,0.8-3c-0.2-2.3-0.2-4.6-0.2-6.9
				c0-1.1,0-2.2,0.5-3.3c0.1-0.2,0.1-0.6,0.1-0.8c-0.1-2.7,0.2-5.3,0.1-8c-0.1-2.2,0.2-4.5,0.1-6.7c0-0.5,0-1,0.5-1.3
				c1.3-0.1,2.6-0.2,3.8-0.2c0.5,0.2,0.7,0.7,0.9,1.2c1.6,3.8,3.1,7.6,4.6,11.4c0.4,1,0.8,2,1.3,3c0.4,0.8,0.8,1.4,1.7,1.4
				c0.5,0,0.7,0.4,0.6,0.8c0,0.6,0,1.2-0.1,1.8C276.5,115.6,276.7,115.9,278.2,116.4z"/>
			<path class="st13" d="M269.7,94.3c2.5,0.1,4.9,0.2,7.4,0.2c0.5,0.9,0.2,1.8,0.1,2.7c-0.1,1-0.1,2-0.2,3.1c-0.4,1.5-0.2,3-0.3,4.5
				c-0.1,1.2-0.3,2.3-0.3,3.4c0,0.4,0,0.9-0.5,0.9c-0.4,0-0.6-0.4-0.7-0.7c-0.4-0.7-0.6-1.6-1-2.3c-1.4-3.5-2.7-7-4.2-10.4
				C269.6,95.2,269.4,94.8,269.7,94.3z"/>
			<path class="st14" d="M269.7,94.3c2,4.9,4,9.8,6.2,15.2c0.4-3.3,0.7-6.2,1-9c0.2,0.2,0.2,0.5,0,0.8c0,1.1,0,2.2,0,3.4
				c-0.3,0.4,0.1,1-0.2,1.4c0,1.1,0,2.2,0,3.3c-0.1,0.1-0.2,0.2-0.3,0.3c-0.8,0.5-0.8,0.9,0.2,1.1c0.4,0.1,0.7,0.3,0.9,0.7
				c-0.2,1.3-0.3,2.6-0.5,3.8c0.4,0.4,1,0.1,1.4,0.5c0,0.2,0,0.4,0,0.6c-1,0.4-1.5,0.1-1.7-1.1c-0.2-1.6,0.7-3.4-1.7-4.4
				c-1-0.4-1.3-2.3-1.8-3.6c-1.8-4.3-3.5-8.7-5.3-13C268.3,94.3,269,94.3,269.7,94.3z"/>
			<path class="st15" d="M81.1,158.5c-0.1-0.2-0.2-0.5-0.2-0.8c1.6-4.3,2.7-8.7,3.8-13.2c0.1-0.3,0.3-0.5,0.9-1.6
				c-0.2,5.3-0.3,9.7-0.8,14.1c-0.1,0.6-1.7,1.1-2.5,1.6C81.9,158.7,81.5,158.6,81.1,158.5z"/>
			<path class="st16" d="M48.7,210.3c-0.7,0.9-1.4,1.1-2.6,0.6c-1.4-0.6-0.4-1.6-1-2.2c-0.7-0.9-1.2-1.9-1.8-2.9
				c0-0.7-0.8-1.1-0.5-1.9C44.7,205.9,46.7,208.1,48.7,210.3z"/>
			<path class="st17" d="M263.9,94.5c-0.1,1.4-0.3,2.8-0.3,4.2c0.3,8-1.4,16-0.7,24.1c0.1,0.8,0.1,1.6-1,1.8c1.2-1.9,0.4-4,0.5-6
				c0.1-7.6,1.1-15.2,0.8-22.8C263.1,95.2,263.2,94.7,263.9,94.5z"/>
			<path class="st17" d="M164.6,209.1c0.9-0.1,1.6-0.5,1.3-1.6c-0.1-0.3-0.1-0.6-0.1-0.9c0.4,0.1,1.1,0.2,1.1,0.4
				c0.1,1.2,1.5,1.6,1.8,2.7c-1.1,0.2-2-1.2-3.1-0.4C165.2,209.2,164.9,209.2,164.6,209.1z"/>
			<path class="st18" d="M42.7,203.8c0.2,0.6,0.8,1.2,0.5,1.9c-0.7-0.9-1.4-1.8-2.1-2.6c-0.5-0.6-0.4-1.1,0.2-1.4
				C41.8,202.3,42.3,203.1,42.7,203.8z"/>
			<path class="st17" d="M277.3,111.5c-0.2-0.1-0.5-0.3-0.8-0.4c-0.5-0.2-1.5,0-1.5-0.9c0-0.7,0.9-0.7,1.5-0.9
				C276.4,110.2,278.1,110.4,277.3,111.5z"/>
			<path class="st19" d="M291.5,114.4c0,0,0,0.1,0,0.1c0,0.1-0.1,0.1-0.1,0.1c-0.1-0.5-0.1-0.9-0.2-1.8c-1.4,2.3-0.6,4.3-0.4,6.4
				c-1.2-1.9-0.7-3.9-0.4-5.9c0.1-0.6,0.5-0.9,1.1-0.8C291.7,113.1,291.6,113.7,291.5,114.4z"/>
			<path class="st17" d="M119.4,93.1c0.7-0.6,1.3-1.2,2-1.8c0.1,0.8,0.3,1.7,0.2,2.5c-0.1,0.9-0.4,1.8-0.6,2.8c0-0.7,0.1-1.3,0.1-2
				c0.1-0.7,0.4-1.6,0.1-1.9C120.6,91.9,120.1,93,119.4,93.1z"/>
			<path class="st17" d="M148.5,219.6c-0.9-1-2.7-0.9-3.2-2.4c1.2,0.4,2.3,0.8,3.5,1.2c0.1,0.2,0.2,0.4,0.2,0.6
				C149.1,219.5,149.1,219.8,148.5,219.6z"/>
			<path class="st20" d="M274,222.9c-0.5-0.6-0.9-1.1-1.5-1.8c-0.2,0.9,0.4,1.8-0.7,2c-0.5,0.1-1,0.7-1.4-0.1c0.7-0.1,1.7,0,1.6-1.2
				c-0.1-0.4-0.1-0.8,0.4-0.9C273,221.4,273.7,222,274,222.9z"/>
			<path class="st17" d="M276.8,101.2c0-0.2,0-0.5,0-0.8c0.1-2,0.2-3.9,0.3-5.9c1.1,0.5,0.2,1.2,0.2,1.8
				C277.2,98,277,99.6,276.8,101.2z"/>
			<path class="st7" d="M417.8,211.2c-0.7,0.6-1.4,1.3-2.1,1.9"/>
			<path class="st7" d="M423.6,205.9c-0.6-0.1-0.5-0.5-0.4-0.9c0.1-0.1,0.4-0.3,0.6-0.3"/>
			<path class="st7" d="M411.7,216.8c-0.5,0.4-1,0.8-1.5,1.1C409.6,216.1,410.9,216.7,411.7,216.8z"/>
			<path class="st7" d="M414.7,214.1c-0.5,0.5-1,0.9-1.4,1.4C413.1,214.3,413.6,213.9,414.7,214.1z"/>
			<path class="st21" d="M398.9,207.6c0,0.2,0,0.4,0,0.6c-1,0.2-1.6-0.1-2-1"/>
			<path class="st22" d="M184.5,183.7c-0.2,0.2-0.5,0.4-0.8,0.6c-0.1-0.4-0.1-0.9-0.2-1.3c0.2-0.1,0.4-0.2,0.5,0.1
				C184.1,183.2,184.3,183.5,184.5,183.7z"/>
			<path class="st17" d="M184,183c-0.1,0-0.3-0.1-0.5-0.1c-0.3-0.2-0.7-0.5-1-0.7c0.3-0.2,0.6-0.4,1-0.6
				C183.6,182.1,183.8,182.6,184,183z"/>
			<path class="st17" d="M278.8,97.5c0-1.4,0-2,0-2.6c0.1,0,0.2,0,0.4,0C279.1,95.5,279,96.1,278.8,97.5z"/>
			<path class="st23" d="M130.2,111.5c0.6,0.2,1.1,0.5,1.7,0.8c0,0.2,0,0.3,0,0.5C131.1,112.7,130.4,112.5,130.2,111.5z"/>
			<path class="st24" d="M139.4,209.4c0.3,0.7,0.5,1.1,0.7,1.5c-0.1,0-0.3,0.1-0.4,0C139.2,210.6,139.4,210.1,139.4,209.4z"/>
			<path class="st7" d="M409.6,218.4c-1,0-2,0-3,0C407.6,218.4,408.6,218.4,409.6,218.4z"/>
			<path class="st17" d="M288,120.4c-0.1,1-0.1,2-0.2,3C287.9,122.4,288,121.4,288,120.4z"/>
			<path class="st17" d="M278.2,115.8c-0.5-0.1-1.2,0.3-1.4-0.5C277.3,115.4,277.9,115.2,278.2,115.8z"/>
			<path class="st17" d="M223.1,146.9c-0.1-0.8-0.1-1.6-0.2-2.3C222.9,145.4,223,146.2,223.1,146.9z"/>
			<path class="st17" d="M145.1,217c-0.5-0.3-1-0.5-1.4-0.8C144.3,216.3,144.9,216.4,145.1,217z"/>
			<path class="st17" d="M291.5,114.4c0-0.6,0-1.2-0.1-1.8c0.5,0.5,0.2,1.1,0.3,1.7C291.6,114.2,291.5,114.3,291.5,114.4z"/>
			<path class="st17" d="M276.6,180.3c-0.6,0-1.1,0-1.7,0C275.5,179.9,276,179.9,276.6,180.3z"/>
			<path class="st17" d="M38.7,202.7"/>
			<path class="st17" d="M55.5,225.3"/>
			<path class="st17" d="M378.5,130.9c0,0.8-0.3,0.9-0.9,0.5C377.9,131.3,378.2,131.1,378.5,130.9z"/>
			<path class="st17" d="M276.6,106c0.1-0.5,0.2-1,0.2-1.4C276.7,105.1,276.6,105.5,276.6,106z"/>
			<path class="st17" d="M201.5,131.9c-0.7,0.6-0.9,0.1-1-0.5C200.9,131.6,201.2,131.8,201.5,131.9z"/>
			<path class="st7" d="M419.4,209.8c-0.3,0.2-0.3,0.2-0.6,0.5C419.1,210,419.1,210,419.4,209.8z"/>
			<path class="st17" d="M327.6,121.3c0-0.5,0-0.9,0-1.4C328,120.4,328.1,120.9,327.6,121.3z"/>
			<path class="st7" d="M396.8,232.3"/>
			<path class="st17" d="M272.4,220.8c-0.5,0.2-0.5,0.5-0.4,0.9C271.7,221.3,271.6,220.9,272.4,220.8z"/>
			<path class="st17" d="M324.5,201.9c-0.1,0.4-0.1,0.9-0.2,1.3C324.4,202.7,324.5,202.3,324.5,201.9z"/>
			<path class="st17" d="M379.9,130.8c-0.4,0-0.8-0.1-1.2-0.1C379.1,130.4,379.5,130.3,379.9,130.8z"/>
			<path class="st17" d="M198.9,131.2c-0.4,0-0.8-0.1-1.2-0.1C198.1,130.9,198.5,130.8,198.9,131.2z"/>
			<path class="st7" d="M398.2,232.1"/>
			<path class="st7" d="M399.3,231.9"/>
			<path class="st25" d="M86.4,117.3c-2.1-1-3.1-0.3-3,2c0.1,1.2-0.1,2.5-0.2,3.8c0-1.7-0.1-3.3,0-5c0-0.8,0.4-1.5,1.2-1.7
				C85.3,116.1,86.1,116.4,86.4,117.3z"/>
			<path class="st26" d="M76.6,157.5c0.1,0.2,0.2,0.3,0.2,0.5c-1.2,0.4-2.2,0.1-3.2-0.5c-0.1-0.1,0-0.3,0.1-0.4
				C74.6,157.2,75.6,157.4,76.6,157.5z"/>
			<path class="st27" d="M73.7,157.1c0,0.1,0,0.1,0,0.2c-0.3,0.3-0.6,0.7-1,1c-0.3-0.5-0.3-0.9,0-1.4C73,156.9,73.3,157,73.7,157.1z
				"/>
			<path class="st21" d="M404.4,102.8c-0.1,1.1,0.4,1.8,1.5,1.8c-0.6,0.4-1.1,0.3-1.6-0.2C403.9,103.9,403.8,103.3,404.4,102.8z"/>
			<path class="st23" d="M395.8,176.9c0.4,0.4,1.2,0.4,1.1,1.2C396.5,177.8,395.8,177.7,395.8,176.9z"/>
			<path class="st28" d="M148.5,219.6c0.2-0.2,0.4-0.4,0.6-0.6c0.2,0.4,0.3,0.7,0.7,1.5C149,220,148.8,219.8,148.5,219.6z"/>
			<path class="st13" d="M254.3,87.5c1.1-0.8,3.2-1.5,2.4-3.7c0.2-0.6-0.1-1.2,0.2-1.8c0-0.9,0-1.6,0-2.4c-0.4-0.6-0.9-0.6-1.4-0.3
				c-6.8,4.6-5,5.1-9.3,4.3c-4.2-0.8-7.2,1.5-7.8,5.6c0,0.2-0.2,0.5-0.4,0.6c-0.5,0.3-0.4-0.2-0.6-0.4c-1.7-2.6-4.2-3.3-7-2.6
				c-5.5,1.4-9.3,5.5-13.1,9.3c-3.4,3.4-6.4,7.2-8.5,11.7c-0.4-0.7,0.1-1.6-0.9-1.6c-0.5,0-0.8,0.1-0.9,0.7c0,0.6-0.2,1.1-0.3,1.7
				c-0.2,1-0.1,2.1,0,3.1c0.4,5.8,3,10.8,6.8,15c3.3,3.8,7.8,5.4,12.9,4.6c2.7-0.4,5.6-0.4,7.4-3.2c0.2-0.4,0.9-2.2,2.3-0.9
				c0.2,0.4,0,0.8,0.2,1.2c0.6,2.6,1.2,5.1,1.6,7.7c0.4,2.7,3.4,5.6-0.6,8c-2.1,1.3-3.4,3.6-5.8,4.4c-2.8,0.9-5.4-0.1-8.1-1
				c-0.3-0.8,0.1-1.6-0.2-2.3c-0.4-0.3-0.1-1.4-0.9-1.1c-0.4,0.1-0.6,0.9-0.7,1.4c-0.2,0.7-0.2,1.5-0.3,2.3c-0.2,0.5,0,1.1-0.2,1.5
				c1.3,4.1,2.6,8.2,3.9,12.2c1.1,3.3,3.4,3.5,6.1,2.5c1.4-0.5,2.7-1.1,4-1.7c5.5-2.8,10.7-6,15.3-10c1.6-1.4,3.4-2.9,4.3-4.7
				c1.6-3.1,0.4-6.5-0.4-9.6c-1.7-7.1-4.1-14.1-6-21.1c-1-3.6-1.4-7.3-2-11C245.5,99.2,249.2,95,254.3,87.5z M229,116.9
				c-2.8-0.1-5.5-0.2-8.1-0.9c-0.8-0.2-0.7-0.3-0.3-0.8c3-3.7,6-7.4,9.4-11.6c-0.8,3.4-0.4,6.3-0.3,9.1c0,0.8,0,1.6,0.4,2.4
				C230.7,116.1,230.7,116.9,229,116.9z"/>
			<g>
				<path class="st29" d="M318.3,215c44,0,88.1,0,132.1,0"/>
				<path class="st7" d="M420.1,209.2c-0.1,0.1-0.2,0.1-0.3,0.1c-0.1,0.1-0.1,0.2-0.2,0.3c0,0.1-0.1,0.1-0.1,0.2
					c0.1,0,0.2-0.1,0.3-0.1c0.1-0.1,0.2-0.1,0.3-0.2C420,209.4,420,209.3,420.1,209.2z"/>
				<path class="st13" d="M325.5,222.7c-0.4-0.4-0.9-0.2-1.4-0.1c-2.8,1.7-2.9,1.7-3.4,0.6c-1-2.2-2.2-4.5-2.5-6.8
					c0-0.3-0.1-0.6-0.1-1c-0.3-2.4-0.5-4.8-0.6-7.2c-3.3,0.9-7.7-1.7-6.5-6c0.8-2.9,1.3-5.7,1.4-8.7c0.1-3.1-0.7-6.1-0.6-9.2
					c0-1.4,0.5-2.5,1.3-3.3c-0.1-2.8,0.1-5.6,0.4-8.4c0.5-4.5,1.3-9,2.4-13.4c0.7-3.5,2-6.9,3.3-10.2c1.1-1.6-1.9-2.1-0.9-3.8
					c0.2-0.3,0.8-0.6,0.5-1c-4.8,1.5-7.6,2.1-11.4,4.4c3,0.7,5.5,3.9,3.3,7.2c-0.8,1.3-1.4,2.6-1.9,4.1c0.3,0.6,0.4,1.3,0.4,2
					c0,4.3,0.3,8.7-0.1,13.1c0.1,1.7,0.3,3.4,0.6,5c0.6,3.3-1.8,5.6-4.3,6.2c-0.2,0.1-0.5,0.3-0.7,0.4c0.3,0.3,0.6,0.6,1,0.8
					c0.1,0.1,0,0.3,0,0.4c-0.2,0-0.3,0-0.5-0.1c-1.2-0.5-2.3-0.8-3.6-0.7c0.3,1.8-0.2,3.8-2.1,5.2c-0.1,0.1-0.2,0.1-0.2,0.1
					c0,0,0,0,0,0c-0.4,0.3-0.7,0.6-1.1,0.9c-0.7,0.6-1.4,1.3-2.1,1.9c-1.6,1.5-3.2,3.1-4.7,4.8c-1.4,1.4-2.8,2.9-4.1,4.4
					c-0.4,0.4-0.7,0.8-1.1,1.2c-0.2,0.3-0.4,0.6-0.7,0.9c-0.2,0.4-0.2,0.3-0.1,0.1c-0.1,0.1-0.1,0.1-0.2,0.2
					c-1.8,1.5-3.9,1.9-6.1,0.8c0,0,0,0,0,0c0,0-0.1,0-0.1-0.1c-0.3,0.1-0.8,0-1,0.4c-0.8,0.6-1,1.4-1.1,2.4
					c-0.1,1.1,0.2,2.1,0.1,3.2c0,0.7,0.2,1.3,0.3,1.9c0.5,2.5,1.5,4.7,2.7,6.9c2.4,4.4,5.6,8,10.6,9.4c2.8,0.8,5.8,0.1,8.6,0
					c1.1-0.2,2.2-0.3,3.1-1.1c2.2-1.1,3.5-3,4.8-4.9c0.2-0.2,0.4-0.4,0.6-0.6c0.1,0.3,0.3,0.5,0.3,0.8c0.3,1.3,0.8,2.7,2.1,3
					c5,1,10,1.3,14.9-0.3c0.4-0.2,0.9-0.3,0.9-0.8C325.5,226.1,326.6,224.2,325.5,222.7z M298.2,217.3c-2.5-0.1-5-0.3-7.4-1
					c-0.1,0-0.2-0.2-0.4-0.2c-0.3-0.2-0.6-0.3-0.9-0.5c0.4-0.6,0.8-1.2,1.1-1.8c0.1,0.1,0.2,0.1,0.2,0.2c-0.2,0.3-0.3,0.7-0.8,1.7
					c2.7-2.8,4.6-6.1,7.1-8.9c1-1.1,1.7-2.6,2.8-3.6c0.6,2.9,0.1,6.5,0.1,9.5c0,0.9,0,1.8,0.3,2.6
					C301.2,217.6,299.9,217.4,298.2,217.3z"/>
			</g>
			<path class="st30" d="M279.5,207.8c-0.3,0.6-0.5,1-0.8,1.4C278.3,208.5,278.5,208.1,279.5,207.8z"/>
			<path class="st13" d="M382.4,134.5c-0.1-0.6,0.1-2.2,0-2.8c-0.1-0.5-0.4-0.2-1.1-0.3c-0.2,0-0.5,0.1-0.7,0
				c-0.3-0.1-0.4-0.4-0.6-0.6c-0.4-0.4-1.1-0.3-1.5,0.1c-0.1,0.1-0.1,0.3-0.3,0.4c-0.2,0.2-0.5,0.1-0.7,0c-1.6-1-1.7-3.8-2.1-5.5
				c-1-3.7-1.4-7.6-2.1-11.4c-1.2-7.3,1.5-12.7,7.2-16.9c2.5-1.9,5.1-5,3.5-8.4c-0.1-0.2-0.2,0.3-0.4,0.2c-0.2-0.2-0.5-0.1-0.8,0.1
				c-0.5,0.4-1,1-1.5,1.5c-0.6,0.5-1.2,0.9-1.8,1.2c-1.3,0.7-2.7,0.9-4.1,0.7c-1.4-0.2-2.9,0-4.3,0c-1.7,0-3,0.6-4.1,2.1
				c-1.1,1.4-1.1,3.1-1.8,4.7c-1-1.6-1.9-2.8-3.6-3.4c-4.2-1.5-7.3,0.9-10.3,3.1c-5.1,3.7-9.4,8.2-12.8,13.6
				c-1.8,2.9-4.1,5.7-4.1,9.3c-0.1,4.2,1.8,7.8,4.1,11.1c2.1,3,4.7,6.1,8.3,6.9c6.8,1.4,13.3,0.7,17.4-6.2c0.8-1.4,1.3,1.6,1.6,2.1
				c1.1,2.1,4.1,2.3,6.1,2.5c2.7,0.2,5.4-0.1,8.1-0.5c0.9-0.1,2-0.4,2.3-1.4c0.2-0.5,0.1-1,0.1-1.6
				C382.4,134.9,382.4,134.7,382.4,134.5z M355.1,126c-2.7-0.3-5.4-0.5-8.1-1.3c-0.4-0.1-1.1-0.2-0.6-0.8l11-12.2
				c-0.6,2.5-0.5,5.1-0.4,7.6c0,1.4-0.2,2.8,0.4,4.3C358.2,125.6,357.5,126.3,355.1,126z"/>
			<path class="st13" d="M204.6,90.3c-0.3-0.3-0.1-1-0.8-1.1c-0.2,0-0.6,0.1-0.7,0.3c-1.8,2-4,3.1-6.7,3.3c-2.4,0.2-5-0.6-7.3,0.4
				c-2.5,1.1-3.1,3.8-3.6,6.2c-0.7-0.8-1.2-1.7-1.9-2.2c-3.2-2.3-6.9-1.8-10.8,1.1c-5.9,4.4-12.2,7.5-16.2,13.8
				c-2.9,4.5-3.4,11-0.7,16.2c2.1,3.9,4.2,7.7,8.2,10.3c2.5,1.6,11.2,2.7,13.8,1.3c3.1-1.6,5-4.1,7.1-6.6c1.1,4.7,2.9,4.8,6.8,5.1
				c2.6,0.2,5.2,0.4,7.8-0.3c1.4-0.4,3,0,3-2.3c0-1.4,0.4-2.3-0.1-3.8c-0.6,0.4-1.7,0-1.9-0.4c-0.6,0.1-1.2,0.4-1.7-0.2
				c-0.4-0.3-0.8-0.2-1.2-0.1c-1.2-1.4-1.6-3.3-2.1-5c-1.2-3.9-1.5-7.9-2.1-11.9c-0.9-5.7,1.5-12.6,6.1-16c1.9-1.4,4.5-2.4,4.9-5.2
				C204.7,92.2,204.3,91.2,204.6,90.3z M175.1,126c-2.6-0.2-5.2-0.5-7.8-1.2c-1.1-0.3-1.1-0.6-0.4-1.4c3.4-3.8,6.8-7.6,10.1-11.3
				c0,3,0,6.2,0,9.4c0,0.7,0,1.4,0.3,2C178.6,126.1,177.3,126.2,175.1,126z"/>
			<path class="st13" d="M274,222.9c-0.4-0.5-0.6-1.1-1.1-1.5c-0.2-0.1-0.3-0.3-0.5-0.2c-0.2,0.1-0.2,0.3-0.2,0.5
				c-0.1,1-0.7,1.4-1.8,1.1c-0.3-0.8-0.6-1.5-1-2.2c-2.1-4.8-2.5-10-3.4-15c-1.4-7.6,1.7-13,7.5-17.4c4.1-3.1,4-4.2,3.1-8
				c-0.5-0.2-1.1-0.2-1.7,0c-0.6,0.8-1.2,1.8-2,2.4c-2.8,2.3-6.2,0.9-9.3,1.1c-2,0.1-3.5,0.9-4.3,2.7c-0.6,1.3-1,2.7-1.6,4.1
				c-0.7-1.7-1.8-2.8-3.4-3.4c-4.3-1.6-7.4,0.9-10.4,3.1c-4.8,3.6-8.9,7.9-12.3,12.9c-3.5,5.1-6.4,10.1-3,16.5
				c2.4,4.6,5.1,8.7,9.9,10.9c3.9,1.9,8.2,1.3,12.1-0.1c3.2-1.1,5-4,7-6.6c0.4,2.5,1,4.8,4.2,4.9c3,0.1,6,0.4,9,0.2
				c1.6-0.1,4.1,0.6,4.3-2.3c0.2-0.9,0-3-0.2-3.9C274.5,222.6,275.2,222.5,274,222.9z M247.8,217.5c-2.9-0.1-5.7-0.2-8.3-1.4
				c-0.6-0.3-0.8-0.4-0.4-0.8l10.6-12.1c0,3.2,0,6.4,0,9.5c0,0.9,0,1.9,0.3,2.8C250.9,217.9,249.5,217.6,247.8,217.5z"/>
			<path class="st13" d="M360.6,210.8c0-0.4-0.1-0.7-0.5-0.9c-1.9,1.5-3.9,3.1-5.8,4.5c-2.1,1.6-3.7,2.3-4.2,2
				c-4.5-2.1-8.6-4.6-11.4-8.9c-0.9-1.4,0.1-2.8,0.5-4.1c0.1-0.4,1.1,0.6,1.6,0.9c0.9,0.6,1.8,1.2,2.8,1.6c5.3,2.5,6.3,3.9,11.5-1.3
				c3.5-3.5,6.3-7.3,6.5-12.5c0.2-0.4,0-0.9,0.2-1.3c0-0.3,0-0.6,0.1-0.8c0.2-0.7-0.1-1.5,0.2-2.2c-0.1-3.7-0.1-7.5-0.2-11.2
				c0-2-1.6-3-3.1-3c-3.8,0.1-7.5,0.5-11.2,0.9c-1.6,0.2-3.5,0.1-4.6,1c-3.3,2.6-6,5.8-7.9,9.6c-2.9,5.8-6.1,11.4-9.2,17.3
				c0.3-1.1-0.5-1.4-0.9-2c-0.2,0.2-0.3,0.5-0.5,0.7c-0.2,0.4,0,0.9-0.2,1.3c-0.3,1.8-0.9,3.8,0.1,5.3c1.7,2.5,3.7,4.9,5.8,7.1
				c2.8,2.9,5.8,5.5,8.8,8.1c2,1.8,3.9,3.7,6.4,4.8c3.8,1.6,7.8,1.4,11.7,1.2c1.9-0.1,3.1-0.9,3.2-3c0.1-0.9,0.2-1.9,0.3-2.8
				c0.1-0.4,0.2-0.7,0.2-1.1 M355.2,192c-2.6,1.6-5.1,3.3-8.1,4.4c-1.1-0.4-2.4-0.6-3.3-1.3c-0.6-0.4,0.3-1.1,0.6-1.5
				c1.4-2,3.3-3.6,4.4-5.9c0.6-1.1,1.5-0.8,2.3-0.2c1.6,1.1,2.8,2.5,4,4C355.2,191.6,355.3,191.9,355.2,192z"/>
			<path class="st31" d="M68.6,151.6c0.6,3.9,1.1,7.8,1.7,11.7c0.3,1.9,0.8,3.8,1.4,5.7c0.9,2.5,2.3,2.8,4.8,1.1
				c-0.4,1.1-1.2,1.8-2.4,1.9c-1.2,0.1-1.9-0.9-2.4-1.9c-1.7-3.6-1.9-7.6-2.4-11.5c-0.1-0.6-0.2-1.1-0.3-1.6
				c-0.7-1.3-0.5-2.7-0.7-4.1C68.4,152.4,68.3,151.9,68.6,151.6z"/>
			<path class="st32" d="M68.6,152.7c0.2,1.4,0.3,2.7,0.5,4.1c-1.2,0.2-0.6,1.1-0.6,1.7c-0.1,1.4-0.1,2.9-0.1,4.4
				c-0.1-3.8-0.1-7.5-0.2-11.3c0-0.1,0.1-0.1,0.1-0.2c0.1,0,0.1,0.1,0.2,0.1C68.7,151.9,68.4,152.4,68.6,152.7z"/>
			<path class="st31" d="M77,169.2c0.2-0.3,0.3-0.6,0.5-0.9C77.4,168.6,77.2,168.9,77,169.2z"/>
			<path class="st15" d="M72.7,158.3c-0.1-0.8,0.3-1.1,1-1c1,0.2,2.1,0.5,3.1,0.7c0.3,0.1,0.8,0.1,0.6,0.7c-0.9,2.6-1.8,5.3-3.3,7.9
				C73.6,163.8,73.2,161,72.7,158.3z"/>
			<path class="st33" d="M68.6,152.7c-0.1-0.4-0.1-0.8-0.2-1.2c0.1,0,0.1,0,0.2,0.1C68.6,152,68.6,152.4,68.6,152.7z"/>
		</g>
	</g>
	<g id="Layer_4" class="st0">
		<path class="st34" d="M389.7,91.5v5.8l3.3,1.4c0,0,2.6,0.2,2.9-1.4s0.9-5.8,0.8-5.8c-0.1-0.1-0.9-2-1.1-2.1s-3.4-0.4-3.4-0.4
			L389.7,91.5z"/>
		<polygon class="st34" points="394,65.3 395.9,65.3 395.3,68.1 394,66.2 		"/>
	</g>
</g>
<g id="Layer_5">
	<g>
		<path class="st13" d="M76.2,60.6c3.9,0,7.8,0.1,11.5,0.2c1.4,0,2.8,0.1,4.1,0.7c2.5,1.2,2.3,4.1,2.7,6.5
			c1.9,11.2,3.6,22.4,5.4,33.6c1.5-4.8,2.9-9.7,4.5-14.4c1.8-5.2,4-10.2,5.8-15.3c1.6-4.6,4.4-6,8.5-3.1c3.4,2.4,7.2,4.7,9.6,7.9
			c1.8,2.5,1.9,6.4,2.2,9.7c1.2,12.2,2.1,24.4,3.3,36.6c0,0.3,3.2,0.6,4.8,0.4c2.3-0.3,6.2-6.4,8.5-6.9c0.6-0.1-0.6,5.2,0,5.2
			c-0.2,0.6-0.2,1.3-0.6,1.6c-7.6,7-15.2,13.9-22.9,20.8c-0.4,0.4-1.9,0.3-2.1-0.1c-0.5-0.8-0.7-1.9-0.7-2.9
			c-0.1-7.4-0.2-14.8-0.3-22.2c0-3.1-0.2-6.2-0.3-9.3c-0.2-4.6-0.4-9.1-1.6-13.9c-4.3,10.1-8.5,20.3-13.3,30.2
			c-0.6,1.3-4,1.7-6.2,1.8c-1.3,0-2.7-0.2-3.5-1.3c-0.5-0.6-0.7-1.4-0.9-2.1c-1.3-4.2-2.3-8.3-3.8-12.4c-0.6-1.7-1.1-3.5-1.6-5.3
			c-0.5-1.6-1.7-3.9-1.7-5.6c0,7.9,0.1,16.2,0,24.4c-0.1,12.8-0.3,25.6-0.5,38.4c-0.2,9.7-0.4,19.4-0.6,29.1
			c-0.2,10.7-0.5,21.5-0.8,32.2c0,0.4-0.4,1-0.7,1c-9.3,2.3-18.9,5.3-27.7-0.5c-4.1-2.7-7.2-7.1-10.4-11.1c-2.2-2.8-3.9-6-5.7-9.1
			c-0.2-0.2,0-0.7,0-1c0.5,0-0.4-5.4,0-5.2c5.4,2.6,12.1,10.8,17.6,13.2c3.6,1.6,7.1,0.7,9.7-2.4c0.4-0.4,0.6-1.1,0.6-1.7
			c0-9.3,0.1-18.5,0-27.8c-0.1-14.1-0.1-28.2-0.3-42.2c-0.1-11.7-0.4-23.4-0.6-35.1c-0.1-7.9-0.2-15.7-0.3-23.6
			c0-2.6,0.4-5.4-0.5-7.8c-0.5-1.4-2.9-2.3-4.6-2.9c-5.3-2.1-11.1-3.6-16.1-6.1C39.4,49.8,66.2,60.6,76.2,60.6z"/>
		<path class="st13" d="M439.1,69.6c-9.7,9-18.8,17.3-27.8,25.6c-1.4,9.4-2.8,18.5-4,27.7c-1.2,8.5-2.1,17.1-3.1,25.7
			c-1.1,9.2-2.3,18.4-3.3,27.5c-0.5,4.7-0.8,9.5-0.8,14.2c-0.1,6.9-0.6,13.9,0.4,20.6c1.2,7.9,6.8,8.2,13.9,3.7
			c2.8-1.8,8-7.1,10.5-9.3c0.2-0.2-0.5,4.8-0.2,4.7c0.1,0.7,0.5,1.8,0.2,2.2c-2.8,2.9-5.5,6-8.6,8.6c-5.2,4.3-10.4,8.6-16,12.4
			c-2.9,2-8.4,0-9.4-3.4c-1.8-6.1-3.8-12.3-4.2-18.6c-0.9-14.6-1.4-29.2-1.1-43.8c0.3-14.7,1.7-29.4,2.7-44.1c0.5-7.5,1.2-15,2-22.5
			c1-9.7,2.2-19.3,3.5-29c0-0.3,1.5-0.7,2.3-0.7c10-0.3,33.3-7.2,43.2-7.6C439.1,63.7,439.9,65.4,439.1,69.6z"/>
		<path class="st13" d="M139.4,207.1c0.3-5.9,1-10,1.3-15.9c0-0.5,1-1.4,1.4-1.4c6,0.5,12,0.9,18,1.7c6.4,0.8,12.7,2,19,3
			c0.4,0.1,0.9,0.6,0.9,0.9c0,4-0.1,8-0.3,12c0,0.9-0.2,2-0.8,2.7c-5.1,6.1-10.1,12.2-15.6,17.9c-1.7,1.8-4.8,2.7-7.4,3.2
			c-16.3,3.1-28-4-36-17.6c-4.5-7.7-8.3-15.9-11.6-24.2c-1.8-4.6-0.9-9,1.5-12.7c6.3-9.6,15.9-18.5,22.4-28c1.6-2.3,3.6-5.5,5.9-5.9
			c3.4-0.6,7.2,0.7,10.8,1.4c8.8,1.8,17.6,3.6,26.4,5.8c1.2,0.3,2.5,2.9,2.5,4.5c0,6.2-0.4,12.3-0.8,18.5c0,0.2-1.3,0.6-1.7,0.4
			c-8.3-4.5-16.4-9.3-24.8-13.5c-1.2-0.6-3.9,2-6,3c-10.2,4.8-12.4,14-13.5,23.9c-0.6,5-0.9,10-1.7,15c-0.7,4.6,2.9,6.2,5.5,8.1
			c5,3.5,10.1,6.8,15.5,9.6c4.3,2.2,9.7-0.5,13-5.4c0.9-1.4,2.3-2.5,3.1-3.9c0.5-0.9,0.8-2.3,0.5-3.3c-1.5-4.4-8.6-7.4-12.7-5.4
			C149.5,203.8,144.4,204.5,139.4,207.1z"/>
		<path class="st13" d="M256.5,79.2c-0.1,0-7.3,0.5-5.8,2.5c1.4,1.9,0.4,2.4-1.9,2.2c-6.2-0.6-7.7-0.1-9.4,4.7
			c-0.3,0.8-1.3,1.1-2,0.5c-3.5-3.4-5.8-3.5-10.5,0c-4.3,3.2-10.7,5.5-13.9,9.8c-7.4,9.7-7.7,13.6-2.2,23.2
			c3.3,5.9,7.8,10.6,15.2,9.3c3.6-0.6,7.1-2.5,10.4-3.9c0.7-0.3,1.5,0.1,1.6,0.9c0.3,1.6,0.6,3.7,1,5.8c0.4,2.7,1.8,5.7,1,7.9
			c-1.7,4.7-9.3,7.6-14.3,6.4c-1.1-0.3-2.7-4.9-3.7-4.7c-0.3,0.1-0.1,6.2,0,6.9c1,3.6,2,7.2,3.4,10.7c0.7,1.7,1.3,4.9,4.4,3.4
			c5.9-2.9,11.6-5.9,17.3-9.1c6.6-3.8,10.4-9,8-17.2c-2.6-8.8-5.7-17.6-7.3-26.6c-2.4-13.4-2.7-16.5,8.8-25.6c0,0,0,0,0,0
			C257.2,85.4,257.3,79.5,256.5,79.2z M226.8,117c-1.9-0.1-3.7-0.6-5.7-1.1c-0.9-0.2-1.2-1.3-0.6-2c2.8-3.1,5.5-6.1,8-8.9
			c0.7-0.8,2-0.3,2.1,0.7c0.2,3.2,0.5,6.6,0.5,10.1C231,116.3,228.2,117.1,226.8,117z"/>
		<path class="st13" d="M328.6,97.2c-0.5,3.9-0.4,5.5-1.1,9.4c-0.1,0.6-0.9,1.4-1.4,1.4c-0.7-0.1-1.4-0.7-1.9-1.2
			c-1.8-2.2-3.3-4.6-5.2-6.7c-2.7-2.9-4,0.1-4.9,1.8c-3.1,5.4-6.1,10.8-8.7,16.4c-0.4,0.8,1,2.8,2.1,3.8c1.9,1.8,4.1,3.2,6.1,4.8
			c4.5,3.6,7.3-0.1,10.4-2.4c1.5-1.1,2.9-2.4,4.4-3.5c0.4-0.3,1.8-5.7,2.1-5.5c0.4,0.3,0.2,6.4,0.1,7c-1.2,6.2-2.5,12.4-3.9,18.5
			c-0.1,0.6-1,1.3-1.5,1.4c-6.3,0.3-12.7,1.3-17.7-4.6c-3.8-4.5-8.7-8.1-12.9-12.3c-3.6-3.5-5-9.8-2.4-14.3
			c4-6.9,8.4-11.9,12.6-18.7c2.6-4.3,7-6.4,12.3-6.3c2.4,0,4.8-0.4,7.2-0.5c2.9-0.2,4.6,1.1,4.3,4.2c-0.1,1.6,0,3.3,0,4.9
			C328.9,94.7,328.5,97.1,328.6,97.2z"/>
		<path class="st13" d="M201.7,190.8c1.5-1.3,4.1-2.9,5.9-5.2c3.6-4.6,7.6-4.9,12.3-2c2.2,1.3,4.5,2.4,6.7,3.8
			c3.2,1.9,2.7,6.3,2.5,9.5c-0.2,2.2-0.4,4.4-1.2,6.4c-1.4,3.4-3.9,0-5.5-1.3c-3-2.5-5.9-5.2-9.1-7.3c-0.5-0.3-2.8,1.7-4,2.9
			c-3.1,2.9-3.7,6.6-3.6,10.7c0.1,6.3-0.3,12.5-0.8,18.8c-0.4,4.2-4.3,3.6-7.1,4.1c-2.5,0.4-5.1,0.3-7.7,0.3c-0.6,0-1.1-0.5-1.7-0.8
			c0.4-0.3-0.2-5.5,0-5.9c2-1.5,4.9-0.6,5.2-3.5c0.6-7.3,1.2-14.9,0-22.1c-0.5-3.2-5.2-5.7-8.1-8.4c-0.9-0.9-2-1.6-3-2.4
			c0.2-0.3-0.3-5.9,0-5.9c4.6-0.5,10,3.5,14.5,3.9C198.8,186.3,200.4,189.5,201.7,190.8z"/>
		<path class="st13" d="M289.9,120c-0.4,0.2-3.5,4.3-3.8,4.6c-1,0.9,0.6,3-0.5,3.2c-1.9,0.4-4.8,6.3-5.5,0.5c-1.1-9,0-18.2,0-27.3
			c0-1.8-0.2-5-0.7-5.1c-3.9-0.6-7.9-0.7-11.8-0.8c-1.2,0-2.5,0.1-3.8,0.3c0.2,5.5,0.1,10.9-0.5,16.3c-0.1,0.8-0.3,1.5-0.6,2.2
			c0.1,7.9,0.1,15.9,0.4,23.8c0,1.2,1.6,3.3,2.6,3.4c3.5,0.3,7.2,0.5,10.5-0.3c7-1.9,13.8-9.9,13.7-15.2
			C289.9,125.2,290,120.4,289.9,120z"/>
		<g>
			<path class="st13" d="M321.6,148.1c-0.1,0-0.1,0-0.2,0c0,0,0,0.1,0,0.1C321.4,148.1,321.4,148.1,321.6,148.1
				C321.5,148.1,321.5,148.1,321.6,148.1z"/>
			<path class="st13" d="M321.6,148.1C322,148.1,321.8,148,321.6,148.1L321.6,148.1z"/>
			<path class="st13" d="M325.8,223.3c-2.1-3.1-4.9-1.1-5.8-4.5c-1.4-5.2-1.5-10.9-1.9-16.3c-0.6-7.6-1.6-15.2-1.6-22.7
				c-3.8,1-7.6,2-11.5,1.3c0.4,2.4,0.9,4.8,1.3,7.1c-1-0.1-2.9-0.7-4.4-0.3c-7.6,2.4-14.9,6.7-19.4,12.8c-3.1,4.1-5.1,9.6-3.8,15.5
				c1.5,6.8,4.9,13.3,11.7,15.3c7.7,2.3,12.8,1.9,18.2-6.2c0.8,1.2,1.7,3.7,2.8,3.8c4.7,0.4,9.6,0.2,14.3,0.2
				C325.9,229.2,325.9,223.5,325.8,223.3z M299,218c-3-0.5-6-0.9-9.4-1.4c4.2-4.7,8-8.9,11.6-12.9c0,2,0,4.1,0,6.3
				c0,1.8-0.2,3.6,0.3,5.3C302.4,217.9,301.4,218.4,299,218z"/>
		</g>
		<path class="st13" d="M384.4,89.8c-0.3-0.3-8.2-1.6-7,2.4c1,3.4-3.3,0.9-6.6,1.8c-2.2,0.6-3.6,3.7-5.2,5.5c-1.4-2.4-4-4.1-7.7-2.5
			c-8.3,3.4-13.8,9.9-18.7,17c-6.2,8.9-2.8,21.6,7.1,26.3c6.3,3,14.1,0.3,18.9-5.8c1.4,1.4,2.8,3.7,4.5,4c3.8,0.6,7.7,0.2,11.6,0.1
			c0.7,0,1.3-0.7,2-1.1c-0.5-0.3,0.4-5.5,0-5.9c-0.7-0.5-5.4,0.3-5.6-0.4c-1.8-5.1-1.8-6.4-2.7-11.6c-1.9-10.3-2.2-14.8,7.8-22.3
			c0.6-0.5,1.5-1,1.7-1.6C384.5,95.1,384.9,90.2,384.4,89.8z M354.2,126.8c-2.5-0.2-4.9-0.9-7.6-1.5c4.1-4.5,7.8-8.7,11.2-12.5
			c0.3,4.2,0.7,8.7,0.8,13.2C358.6,126.3,355.7,126.9,354.2,126.8z"/>
		<path class="st13" d="M275.5,222.3c0-0.1-0.1-0.2-0.2-0.4c-1.7,0.5-3.7-0.2-4.9-1.6c-0.1,0-0.1-0.1-0.2-0.1
			c-0.8-0.6-1.4-1.2-1.9-2c-0.2-0.2-0.4-0.3-0.5-0.5c-2.2-1.9-3.8-4.5-2.9-7.5c0.5-1.5,1.5-2.6,2.7-3.1c-0.6-2.3-0.9-4.7-0.8-7.2
			c0.3-6.1,5.8-9.3,9.9-13c1.1-1,1.5-6.6,0.4-6.8c-3.9-0.5-10,3.9-13.8,5c-2.2,0.6-3.6,3.7-5.3,5.5c-1.4-2.4-4.5-4.5-7.5-2.4
			c-5.9,4.1-14,7.3-18.9,12.5c-3.5,3.7-4.9,9.6-3.6,15.5c1.5,6.8,4.9,13.3,11.7,15.3c7.7,2.3,12.7,1.9,18.3-6.3
			c0.8,1.2,1.6,3.7,2.6,3.8c4.8,0.4,9.6,0.2,14.5,0.2c0.1,0,0.4-0.8,0.4-1C275.2,225.5,276.6,224.5,275.5,222.3z M248.4,217.9
			c-3-0.5-6-0.9-9.4-1.4c4.2-4.7,7.9-8.8,11.6-12.9c0,2.3,0,4.7,0,7.2c0,1.5-0.1,3,0.3,4.3C251.8,217.8,250.8,218.4,248.4,217.9z"/>
		<path class="st13" d="M364.5,204.9c-0.8,0.2-1.9,5.5-2.6,5.9c-0.9,0.5-1.6,1.3-2.3,2c-6,5.9-7.9,6.4-13.9,2.2
			c-3.3-2.3-8.2-4.4-5.5-10.4c0.5,0.4,1,0.7,1.5,1c3.2,1.4,7.1,4.5,9.5,3.6c5.6-2,10-6.3,10.5-13.1c0.4-5.8,1-11.6,1-17.5
			c0-1.2-2.1-3.1-3.4-3.3c-2.6-0.4-5.3,0.4-8,0.4c-5.1-0.1-9.6,1.9-12.1,6c-4.8,7.8-9.1,12.1-13.3,20.3c-0.6,1.2-0.1,7.7,0.8,8.7
			c4.3,4.8,8.8,9.3,13.4,13.8c4.8,4.7,10.2,6.5,16.9,6c2.2-0.1,4-0.4,4.5-2.8c1.1-5,2.1-10.1,3.1-15.1
			C364.6,211.8,364.6,205.7,364.5,204.9z M347.1,192.7c0.8-1.2,1.5-2.6,2.6-3.3c0.9-0.5,2.6-0.3,3.5,0.3c1.3,0.8,2.3,2.3,3.5,3.6
			c-2.4,1.4-4.4,3.1-6.7,3.8c-1.6,0.5-3.6-0.3-5.4-0.5C345.4,195.4,346.2,194,347.1,192.7z"/>
		<path class="st13" d="M201.6,86.1c-0.3-0.3-3.9,1.1-4.5,1.1c-3.6,0-5.7,2.6-9,3.6c-2.2,0.6-3.6,3.7-5.2,5.5
			c-1.4-2.4-4-4.1-7.7-2.6c-8.4,3.4-14.1,10-18.9,17.3c-6,9-2.9,21,7,25.7c6.1,2.9,14.9,2.2,19.2-5.6c1.3,1.3,2.5,3.8,4.1,4
			c4,0.6,8.1,0.2,12.2,0.2c0.6,0,1.2-0.7,1.7-1.1c-0.5-0.3,0.4-5.6,0-5.9c-0.7-0.5-3.9,0.6-4.2-0.1c-1.8-5.1-3.2-6.6-4.2-11.9
			c-1.9-10.1-2.3-14.8,7.8-22.3c0.6-0.5,1.5-1,1.7-1.6C201.7,91.8,202.1,86.5,201.6,86.1z M174.2,123.8c-3.4-0.4-6.8-1-10.6-1.5
			c4.2-4.7,8-8.9,11.4-12.7c0.3,4.2,0.7,8.6,0.9,13.1C176,123,174.8,123.8,174.2,123.8z"/>
	</g>
</g>
<g id="Layer_6">
	<g id="Layer_7">
	</g>
</g>
<g id="Layer_4_00000104663844754022771440000011439909188229627062_">
	<g>
		<defs>
			<path id="SVGID_1_" d="M76.2,55.4c3.9,0,7.8,0.1,11.5,0.2c1.4,0,2.8,0.1,4.1,0.7c2.5,1.2,2.3,4.1,2.7,6.5
				c1.9,11.2,3.6,22.4,5.4,33.6c1.5-4.8,2.9-9.7,4.5-14.4c1.8-5.2,4-10.2,5.8-15.3c1.6-4.6,4.4-6,8.5-3.1c3.4,2.4,7.2,4.7,9.6,7.9
				c1.8,2.5,1.9,6.4,2.2,9.7c1.2,12.2,2.1,24.4,3.3,36.6c0,0.3,3.2,0.6,4.8,0.4c2.3-0.3,4.5-1.1,6.7-1.6c0.6-0.1,1.2,0,1.8,0
				c-0.2,0.6-0.2,1.3-0.6,1.6c-7.6,7-15.2,13.9-22.9,20.8c-0.4,0.4-1.9,0.3-2.1-0.1c-0.5-0.8-0.7-1.9-0.7-2.9
				c-0.1-7.4-0.2-14.8-0.3-22.2c0-3.1-0.2-6.2-0.3-9.3c-0.2-4.6-0.4-9.1-1.6-13.9c-4.3,10.1-8.5,20.3-13.3,30.2
				c-0.6,1.3-4,1.7-6.2,1.8c-1.7,0.1-3.3-0.4-4.1-2.1c-0.4-0.8-0.6-1.7-0.7-2.6c-0.8-3.7-2.1-7.2-3.3-10.8c-0.6-1.9-1.2-3.9-1.8-5.8
				c-0.5-1.6-1.7-3.8-1.7-5.4c0,7.9,0.1,16.2,0,24.4c-0.1,12.8-0.3,25.6-0.5,38.4c-0.2,9.7-0.4,19.4-0.6,29.1
				c-0.2,10.7-0.5,21.5-0.8,32.2c0,0.4-0.4,1-0.7,1c-9.3,2.3-18.9,5.3-27.7-0.5c-4.1-2.7-7.2-7.1-10.4-11.1c-2.2-2.8-3.9-6-5.7-9.1
				c-0.2-0.2,0-0.7,0-1c0.5,0,1-0.1,1.4,0.1c5.4,2.6,10.7,5.5,16.2,7.9c3.6,1.6,7.1,0.7,9.7-2.4c0.4-0.4,0.6-1.1,0.6-1.7
				c0-9.3,0.1-18.5,0-27.8c-0.1-14.1-0.1-28.2-0.3-42.2c-0.1-11.7-0.4-23.4-0.6-35.1c-0.1-7.9-0.2-15.7-0.3-23.6
				c0-2.6,0.4-5.4-0.5-7.8c-0.5-1.4-2.9-2.3-4.6-2.9c-5.3-2.1-11.1-3.6-16.1-6.1C55.8,55.6,66.2,55.3,76.2,55.4z M425.8,64.5
				c-10,0.3-19.9,0.6-29.9,0.9c-0.8,0-2.3,0.4-2.3,0.7c-1.3,9.6-2.4,19.3-3.5,29c-0.8,7.5-1.5,15-2,22.5c-1,14.7-2.4,29.4-2.7,44.1
				c-0.3,14.6,0.2,29.2,1.1,43.8c0.4,6.3,2.4,12.5,4.2,18.6c1,3.4,6.5,5.4,9.4,3.4c5.5-3.8,10.8-8.1,16-12.4
				c3.1-2.6,5.8-5.6,8.6-8.6c0.3-0.4-0.1-1.4-0.2-2.2c-0.3,0.1-0.7,0-0.9,0.2c-2.6,2.2-4.8,4.8-7.7,6.6c-7.1,4.5-14.5,2-15.6-5.9
				c-1-6.8-0.5-13.7-0.4-20.6c0.1-4.7,0.3-9.5,0.8-14.2c1-9.2,2.2-18.4,3.3-27.5c1-8.6,2-17.1,3.1-25.7c1.2-9.2,2.7-18.3,4-27.7
				c8.9-8.2,18-16.6,27.8-25.6C434.3,64,430.1,64.3,425.8,64.5z M154.3,195.6c4.1-2,11.3,1,12.7,5.4c0.3,1,0,2.4-0.5,3.3
				c-0.8,1.4-2.1,2.5-3.1,3.9c-3.3,4.9-8.7,7.6-13,5.4c-5.4-2.7-10.6-6.1-15.5-9.6c-2.7-1.9-6.2-3.5-5.5-8.1c0.8-5,1.2-10,1.7-15
				c1.1-9.9,3.4-19.1,13.5-23.9c2.1-1,4.8-3.6,6-3c8.4,4.2,16.5,9,24.8,13.5c0.4,0.2,1.7-0.2,1.7-0.4c0.4-6.2,0.8-12.3,0.8-18.5
				c0-1.6-1.3-4.2-2.5-4.5c-8.7-2.2-17.5-4-26.4-5.8c-3.6-0.7-7.4-2-10.8-1.4c-2.3,0.4-4.3,3.6-5.9,5.9c-6.5,9.4-12.9,19-19.2,28.6
				c-2.4,3.7-6.5,7.5-4.7,12.1c3.2,8.3,7.1,16.5,11.6,24.2c8,13.6,19.7,20.7,36,17.6c2.6-0.5,5.6-1.4,7.4-3.2
				c5.5-5.7,10.5-11.9,15.6-17.9c0.6-0.7,0.7-1.8,0.8-2.7c0.2-4,0.3-8,0.3-12c0-0.3-0.6-0.8-0.9-0.9c-6.3-1.1-12.6-2.2-19-3
				c-6-0.8-12-1.2-18-1.7c-0.5,0-1.4,0.9-1.4,1.4c-0.4,5.9-0.6,11.8-0.9,17.6C144.9,200.4,149.5,197.9,154.3,195.6z M256.5,80.1
				C256.5,80.1,256.5,80.1,256.5,80.1c-11.4,9.1-11.2,12.3-8.8,25.7c1.6,9,4.7,17.8,7.3,26.6c2.4,8.2-1.4,13.4-8,17.2
				c-5.6,3.3-11.4,6.3-17.3,9.1c-3.1,1.5-3.7-1.6-4.4-3.4c-1.4-3.4-2.4-7.1-3.4-10.7c-0.2-0.6,0-2,0.3-2.1c1.1-0.3,2.3-0.4,3.4-0.2
				c5,1.2,12.6-1.6,14.3-6.4c0.8-2.2-0.6-5.2-1-7.9c-0.3-2.1-0.7-4.2-1-5.8c-0.1-0.8-0.9-1.2-1.6-0.9c-3.3,1.4-6.8,3.3-10.4,3.9
				c-7.4,1.3-11.9-3.5-15.2-9.3c-5.5-9.6-3.2-12.3,4.2-22c3.2-4.2,7.6-7.8,12-10.9c4.7-3.4,7-3.3,10.5,0c0.6,0.6,1.7,0.3,2-0.5
				c1.7-4.8,3.2-5.3,9.4-4.7c2.3,0.2,4.7,0,7.1,0.1c0.1,0,0.2,0,0.3,0.1C256.9,78.4,257.2,79.5,256.5,80.1z M231,110
				c0-3.5-0.2-6.9-0.5-10.1c-0.1-1.1-1.4-1.5-2.1-0.7c-2.5,2.7-5.1,5.7-8,8.9c-0.6,0.7-0.3,1.8,0.6,2c2,0.5,3.8,0.9,5.7,1.1
				C228.2,111.2,231,110.4,231,110z M328.8,88.8c0-1.6-0.1-3.3,0-4.9c0.2-3.2-1.4-4.4-4.3-4.2c-2.4,0.1-4.8,0.6-7.2,0.5
				c-5.3-0.1-9.7,2-12.3,6.3c-4.2,6.8-7.6,14.1-11.6,21c-2.7,4.6-2.2,8.5,1.4,12c4.2,4.2,9.1,7.8,12.9,12.3c5,5.9,11.3,4.9,17.7,4.6
				c0.5,0,1.4-0.8,1.5-1.4c1.4-6.2,2.6-12.3,3.9-18.5c0.1-0.6-0.1-1.5-0.5-1.8c-0.3-0.3-1.3-0.1-1.7,0.2c-1.5,1.1-2.9,2.4-4.4,3.5
				c-3.1,2.3-5.9,5.9-10.4,2.4c-2-1.6-4.2-3-6.1-4.8c-1-1-2.4-3-2.1-3.8c2.7-5.6,5.6-11.1,8.7-16.4c1-1.7,2.2-4.6,4.9-1.8
				c1.9,2.1,3.4,4.5,5.2,6.7c0.5,0.6,1.2,1.2,1.9,1.2c0.4,0,1.3-0.8,1.4-1.4c0.6-3.9,0.7-5,1.2-8.9
				C328.6,91.7,328.9,88.8,328.8,88.8z M196.9,180.3c-4.5-0.4-9.2,0.7-13.8,1.2c-0.3,0-0.5,0.5-0.7,0.8c1,0.8,2,1.6,3,2.4
				c2.8,2.8,7.5,5.3,8.1,8.4c1.2,7.2,0.6,14.7,0,22.1c-0.3,2.9-2.6,5.6-4,8.4c-0.2,0.4-0.8,0.7-1.1,1c0.6,0.3,1.1,0.8,1.7,0.8
				c2.6,0,5.2,0.1,7.7-0.3c2.8-0.5,6.7,0,7.1-4.1c0.6-6.2,0.9-12.5,0.8-18.8c-0.1-4.2,0.6-7.8,3.6-10.7c1.2-1.2,3.5-3.2,4-2.9
				c3.2,2.1,6.1,4.8,9.1,7.3c1.2,1,4,3.9,5.4,1.7c0.3-0.4,0.4-1,0.5-1.5c0.3-1.6,0.5-3.2,0.6-4.8c0.3-3.2,0.9-8-2.4-9.9
				c-2.2-1.3-4.5-2.4-6.7-3.8c-4.7-2.9-8.6-2.6-12.3,2c-1.8,2.3-4.4,3.9-5.9,5.2C200.4,183.6,198.8,180.4,196.9,180.3z M261.6,90.1
				c0.3,4.7,0.9,9.5,1,14.2c0.2,9.2,0.2,18.3,0.5,27.5c0,1.2,1.6,3.3,2.6,3.4c3.5,0.3,7.2,0.5,10.5-0.3c6.4-1.7,11.7-7.5,13.7-13.7
				c0.4-1.3-0.6-2.9-1.9-1.5c-0.3,0.3-0.5,0.7-0.8,1c-1.1,1.3-2.3,2.5-3.6,3.6c-0.4,0.4-1.5,0.1-2.1,0.1c-0.4,0-0.8-0.3-1-0.7
				c-0.2-0.4-0.3-0.8-0.3-1.2c-1.3-9-0.1-18.2,0-27.3c0-1.8-0.2-5-0.7-5.1c-3.9-0.6-7.9-0.7-11.8-0.8c-1.9,0-3.9,0.3-6,0.5
				C261.7,89.6,261.6,89.9,261.6,90.1z M321.6,142.2c-0.1,0-0.1,0-0.2,0c0,0,0,0.1,0,0.1C321.4,142.2,321.4,142.2,321.6,142.2
				C321.5,142.2,321.5,142.2,321.6,142.2z M321.6,142.2C322,142.2,321.8,142.1,321.6,142.2L321.6,142.2z M325.8,223.3
				c-4.8,0-9.6,0.3-14.3-0.2c-1.1-0.1-1.9-2.6-2.8-3.8c-5.5,8.1-10.6,8.5-18.2,6.2c-6.8-2-10.2-8.5-11.7-15.3
				c-1.3-5.8,2.8-10,5.9-14.1c4.5-6.1,9.7-11.7,17.3-14.1c1.5-0.5,3.4,0.2,4.4,0.3c-1.6-8.8-3.4-18-4.8-27.3
				c-0.8-5.2,3.8-6.6,7.2-8.2c4-1.9,8.3-3.1,12.5-4.5c-1.7,9.2-4.1,18.2-4.7,27.4c-0.5,8.9,0.8,18,1.5,26.9
				c0.4,5.5,0.5,11.1,1.9,16.3c0.9,3.4,4.1,6.3,6.2,9.4C326.3,222.5,325.9,223.3,325.8,223.3z M301.5,209.3
				c-0.5-1.7-0.3-3.5-0.3-5.3c0-2.1,0-4.3,0-6.3c-3.6,4.1-7.4,8.2-11.6,12.9c3.4,0.5,6.4,0.9,9.4,1.4
				C301.4,212.5,302.4,212,301.5,209.3z M384.4,89.8c-0.1,0.6-1,1.1-1.7,1.6c-10,7.5-9.7,12-7.8,22.3c0.9,5.2,3.2,10.2,5,15.3
				c0.3,0.7,1.1,1.2,1.8,1.8c0.4,0.4,1,0.6,1.5,0.9c-0.7,0.4-1.3,1-2,1.1c-3.9,0.1-7.8,0.5-11.6-0.1c-1.7-0.3-3-2.6-4.5-4
				c-4.7,6.2-12.5,8.8-18.9,5.8c-9.9-4.7-13.4-17.4-7.1-26.3c5-7.1,10.5-13.6,18.7-17c3.7-1.5,6.3,0.2,7.7,2.5
				c1.6-1.8,3.1-4.9,5.2-5.5c3.3-1,7.1-0.3,10.7-0.3c0.6,0,1.4-0.3,1.7,0C383.8,88.3,384.5,89.2,384.4,89.8z M358.6,120.2
				c-0.1-4.5-0.5-9.1-0.8-13.2c-3.4,3.8-7.2,8-11.2,12.5c2.7,0.5,5.1,1.3,7.6,1.5C355.7,121.1,358.6,120.4,358.6,120.2z
				 M266.9,193.9c0.1,7.3,1.8,14.6,3.5,21.8c0.6,2.5,3.4,4.4,5.2,6.6c0.1,0.2-0.2,1-0.4,1c-4.8,0-9.7,0.2-14.5-0.2
				c-1-0.1-1.8-2.6-2.6-3.8c-5.5,8.2-10.6,8.5-18.3,6.3c-6.8-2-10.2-8.5-11.7-15.3c-1.3-5.8,2.5-10.3,6-14
				c4.9-5.2,10.6-9.8,16.5-13.9c3-2.1,6.1,0,7.5,2.4c1.6-1.8,3.1-4.9,5.3-5.5c3.6-1.1,8-0.5,11.8-0.1c1.1,0.1,2.9,0.7,1.6,1.9
				C272.6,184.7,266.8,187.9,266.9,193.9z M250.9,209.2c-0.4-1.3-0.3-2.9-0.3-4.3c0-2.4,0-4.9,0-7.2c-3.6,4.1-7.4,8.2-11.6,12.9
				c3.4,0.5,6.4,0.9,9.4,1.4C250.8,212.5,251.8,211.9,250.9,209.2z M364.5,206.7c-1,5-2,10.1-3.1,15.1c-0.9,4.2-4.5,2.4-6.8,2.7
				c-5.8,0.7-10.5-2-14.5-5.9c-4.5-4.5-9.1-9-13.4-13.8c-0.9-1-1.2-3.5-0.6-4.7c4.1-8.2,8.3-16.5,13.1-24.3c2.5-4.2,7-6.1,12.1-6
				c2.7,0,5.4-0.8,8-0.4c1.3,0.2,3.4,2.2,3.4,3.3c0,5.8-0.6,11.6-1,17.5c-0.5,6.8-4.9,11.1-10.5,13.1c-2.4,0.9-6.3-2.3-9.5-3.6
				c-0.5-0.2-0.9-0.6-1.5-1c-2.7,6,2.3,8,5.5,10.4c6,4.3,7.9,3.7,13.9-2.2c0.7-0.7,1.5-1.5,2.3-2c0.7-0.4,1.5-0.4,2.3-0.6
				C364.3,205.1,364.6,205.9,364.5,206.7z M344.6,190.8c1.8,0.2,3.8,1,5.4,0.5c2.3-0.8,4.4-2.4,6.7-3.8c-1.2-1.3-2.2-2.7-3.5-3.6
				c-0.9-0.6-2.6-0.8-3.5-0.3c-1.1,0.6-1.8,2.1-2.6,3.3C346.2,188.1,345.4,189.5,344.6,190.8z M201.6,86.5c-0.1,0.6-1,1.1-1.7,1.6
				c-10.1,7.6-9.7,12.3-7.8,22.3c1,5.3,3.3,10.3,5.1,15.4c0.2,0.7,1.2,1.2,1.9,1.7c0.4,0.3,1,0.6,1.4,0.8c-0.6,0.4-1.1,1.1-1.7,1.1
				c-4.1,0.1-8.2,0.4-12.2-0.2c-1.6-0.2-2.8-2.7-4.1-4c-4.3,7.8-13.1,8.5-19.2,5.6c-9.9-4.7-13-16.7-7-25.7
				c4.9-7.3,10.5-13.8,18.9-17.3c3.6-1.5,6.2,0.2,7.7,2.6c1.6-1.8,3.1-4.9,5.2-5.5c3.3-1,7.1-0.2,10.7-0.3c0.6,0,1.4-0.3,1.7,0
				C201,85,201.7,85.9,201.6,86.5z M176,116.7c-0.2-4.5-0.6-9-0.9-13.1c-3.4,3.8-7.2,8-11.4,12.7c3.8,0.6,7.2,1.1,10.6,1.5
				C174.8,117.9,176,117.1,176,116.7z"/>
		</defs>
		<clipPath id="SVGID_00000143583878365374277820000007114384268985435788_">
			<use xlink:href="#SVGID_1_"  style="overflow:visible;"/>
		</clipPath>
		
			<rect x="9.3" y="10.9" style="clip-path:url(#SVGID_00000143583878365374277820000007114384268985435788_);fill:#6D4258;" width="470.7" height="250.1"/>
		
			<rect x="53.2" y="40.6" style="clip-path:url(#SVGID_00000143583878365374277820000007114384268985435788_);fill:#7F4F6A;" width="4.3" height="207.5"/>
		
			<rect x="72.7" y="44.2" style="clip-path:url(#SVGID_00000143583878365374277820000007114384268985435788_);fill:#7F4F6A;" width="7.2" height="209.6"/>
		
			<rect x="94.1" y="44.3" style="clip-path:url(#SVGID_00000143583878365374277820000007114384268985435788_);fill:#7F4F6A;" width="4.5" height="116"/>
		
			<rect x="115.2" y="52.9" style="clip-path:url(#SVGID_00000143583878365374277820000007114384268985435788_);fill:#7F4F6A;" width="2.2" height="63.7"/>
		
			<rect x="133.2" y="102.3" style="clip-path:url(#SVGID_00000143583878365374277820000007114384268985435788_);fill:#7F4F6A;" width="5" height="142.9"/>
		
			<rect x="153.2" y="87.6" style="clip-path:url(#SVGID_00000143583878365374277820000007114384268985435788_);fill:#7F4F6A;" width="16.6" height="154.7"/>
		
			<rect x="187.9" y="68.8" style="clip-path:url(#SVGID_00000143583878365374277820000007114384268985435788_);fill:#7F4F6A;" width="5" height="173.5"/>
		
			<rect x="220.2" y="68.8" style="clip-path:url(#SVGID_00000143583878365374277820000007114384268985435788_);fill:#7F4F6A;" width="7.7" height="176.4"/>
		
			<rect x="245.1" y="58.7" style="clip-path:url(#SVGID_00000143583878365374277820000007114384268985435788_);fill:#7F4F6A;" width="24" height="189.4"/>
		
			<rect x="277.7" y="75.3" style="clip-path:url(#SVGID_00000143583878365374277820000007114384268985435788_);fill:#7F4F6A;" width="7" height="169.9"/>
		
			<rect x="307.1" y="63.7" style="clip-path:url(#SVGID_00000143583878365374277820000007114384268985435788_);fill:#7F4F6A;" width="4.1" height="190.1"/>
		
			<rect x="339.1" y="63.7" style="clip-path:url(#SVGID_00000143583878365374277820000007114384268985435788_);fill:#7F4F6A;" width="17.7" height="187.2"/>
		
			<rect x="364.6" y="68.8" style="clip-path:url(#SVGID_00000143583878365374277820000007114384268985435788_);fill:#7F4F6A;" width="6.9" height="143.4"/>
		
			<rect x="395.2" y="40.6" style="clip-path:url(#SVGID_00000143583878365374277820000007114384268985435788_);fill:#7F4F6A;" width="5.8" height="213.3"/>
		
			<rect x="419.7" y="31.2" style="clip-path:url(#SVGID_00000143583878365374277820000007114384268985435788_);fill:#8E5978;" width="10.4" height="211.2"/>
		
			<rect x="79.9" y="44.3" style="clip-path:url(#SVGID_00000143583878365374277820000007114384268985435788_);fill:#8E5978;" width="5.8" height="189.7"/>
		
			<rect x="120.2" y="47.8" style="clip-path:url(#SVGID_00000143583878365374277820000007114384268985435788_);fill:#8E5978;" width="5.8" height="197.4"/>
		
			<rect x="138.2" y="75.3" style="clip-path:url(#SVGID_00000143583878365374277820000007114384268985435788_);fill:#8E5978;" width="9.1" height="172.8"/>
		
			<rect x="169.8" y="61.2" style="clip-path:url(#SVGID_00000143583878365374277820000007114384268985435788_);fill:#8E5978;" width="7.7" height="184"/>
		
			<rect x="232.3" y="41" style="clip-path:url(#SVGID_00000143583878365374277820000007114384268985435788_);fill:#8E5978;" width="6.7" height="201.3"/>
		
			<rect x="291.7" y="69.2" style="clip-path:url(#SVGID_00000143583878365374277820000007114384268985435788_);fill:#8E5978;" width="9.8" height="178.9"/>
		
			<rect x="374.4" y="39.9" style="clip-path:url(#SVGID_00000143583878365374277820000007114384268985435788_);fill:#8E5978;" width="10" height="213.9"/>
		
			<rect x="407.5" y="10.9" style="clip-path:url(#SVGID_00000143583878365374277820000007114384268985435788_);fill:#8E5978;" width="4.7" height="226.3"/>
	</g>
</g>
</svg>
